<svg
   xmlns="http://www.w3.org/2000/svg"
   id="svg2"
   viewBox="0 0 32 32"
   height="32"
   width="32">
  <path
     style="fill:#00bb00"
     id="path4"
     d="m 30.239024,9.5173455 c 0,0.462541 -0.185016,0.9250825 -0.518046,1.2581125 L 13.809564,26.686872 c -0.33303,0.333029 -0.795571,0.518046 -1.258112,0.518046 -0.462541,0 -0.925082,-0.185017 -1.258112,-0.518046 L 2.0795215,17.473053 c -0.3330296,-0.33303 -0.5180461,-0.795571 -0.5180461,-1.258112 0,-0.462541 0.1850165,-0.925082 0.5180461,-1.258112 l 2.5162237,-2.516223 c 0.3330296,-0.33303 0.7955709,-0.518046 1.2581114,-0.518046 0.4625413,0 0.9250826,0.185016 1.2581122,0.518046 L 12.551452,17.898591 24.688531,5.7430105 c 0.333029,-0.3330296 0.795571,-0.5180461 1.258112,-0.5180461 0.462541,0 0.925082,0.1850165 1.258111,0.5180461 l 2.516224,2.516224 c 0.33303,0.333029 0.518046,0.795571 0.518046,1.258111 z" />
</svg>
