<?xml version="1.0" encoding="UTF-8" standalone="no"?>
        <svg version="1.1" id="Capa_1" style='fill:#1b7fe4' xmlns="http://www.w3.org/2000/svg"  x="0px" y="0px"
	  viewBox="0 0 433.5 433.501" >
		<path d="M105.998,409.968c-21.809-0.072-43.384-3.358-64.208-9.788c3.422-58.116,26.764-111.351,64.729-147.982
			c0,0.016,0.005,0.026,0.011,0.036c1.279,4.589,2.73,9.089,4.284,13.561c0.221,0.64,0.431,1.275,0.657,1.904
			c1.514,4.254,3.165,8.453,4.929,12.605c0.329,0.766,0.661,1.527,0.995,2.299c1.801,4.131,3.708,8.183,5.746,12.205
			c0.302,0.571,0.614,1.166,0.918,1.737c2.129,4.09,4.35,8.12,6.714,12.062c0.07,0.111,0.134,0.231,0.205,0.343
			c2.396,3.988,4.95,7.874,7.596,11.705c0.419,0.609,0.826,1.228,1.252,1.827c2.575,3.654,5.263,7.233,8.052,10.741
			c0.523,0.66,1.048,1.312,1.575,1.963c2.861,3.506,5.812,6.971,8.885,10.32c0.398,0.429,0.808,0.85,1.21,1.28
			c3.133,3.371,6.359,6.667,9.708,9.858c0.139,0.132,0.268,0.283,0.409,0.42C140.389,366.814,117.195,386.026,105.998,409.968z"/>
			<path d="M164.188,202.149c1.423-1.118,2.864-2.215,4.352-3.23c1.039-0.711,2.103-1.378,3.174-2.039
				c1.509-0.93,3.036-1.816,4.601-2.644c1.113-0.591,2.231-1.163,3.371-1.698c1.606-0.764,3.246-1.452,4.903-2.102
				c1.154-0.457,2.299-0.914,3.472-1.318c1.74-0.596,3.52-1.095,5.304-1.58c1.14-0.307,2.263-0.646,3.42-0.903
				c1.987-0.446,4.016-0.758,6.047-1.058c0.996-0.146,1.967-0.357,2.967-0.461c3.046-0.342,6.139-0.534,9.257-0.534
				c2.897,0,5.778,0.176,8.632,0.473c0.693,0.071,1.376,0.2,2.059,0.292l13.848-18.29c1.794-2.364,5.154-2.842,7.533-1.042
				c2.355,1.791,2.823,5.166,1.028,7.53l-10.72,14.171c1.003,0.278,1.974,0.581,2.971,0.897c1.104,0.354,2.194,0.758,3.277,1.16
				c1.595,0.581,3.16,1.206,4.692,1.882c1.081,0.473,2.143,0.966,3.213,1.488c1.501,0.743,2.986,1.543,4.451,2.375
				c1.013,0.578,2.025,1.153,3.018,1.775c1.475,0.923,2.898,1.926,4.315,2.939c0.903,0.651,1.821,1.27,2.688,1.953
				c1.521,1.186,2.976,2.467,4.398,3.759c0.704,0.622,1.429,1.212,2.111,1.869c0.109,0.112,0.246,0.209,0.366,0.322
				c2.992-7.566,4.558-15.701,4.558-23.903c0-35.699-29.025-64.736-64.731-64.736c-35.696,0-64.735,29.037-64.735,64.736
				c0,9.384,2.071,18.646,6.037,27.161c0.194-0.21,0.409-0.386,0.609-0.596c0.785-0.84,1.627-1.604,2.438-2.405
				c1.373-1.354,2.753-2.688,4.205-3.929C162.235,203.639,163.22,202.9,164.188,202.149z"/>
			<path d="M266.18,216.685c-0.818-0.823-1.646-1.637-2.509-2.419c-1.039-0.948-2.13-1.861-3.228-2.748
				c-0.883-0.719-1.774-1.441-2.688-2.113c-1.145-0.837-2.335-1.623-3.501-2.391c-0.95-0.602-1.885-1.226-2.835-1.791
				c-1.239-0.727-2.509-1.375-3.789-2.026c-0.977-0.496-1.942-1.01-2.94-1.457c-1.334-0.596-2.708-1.118-4.084-1.645
				c-1.003-0.375-1.964-0.786-2.986-1.118c-1.455-0.483-2.95-0.858-4.426-1.248c-0.981-0.252-1.922-0.559-2.897-0.764
				c-1.675-0.359-3.349-0.596-5.05-0.837c-0.841-0.117-1.658-0.301-2.5-0.394c-2.55-0.272-5.121-0.425-7.708-0.425
				c-2.785,0-5.522,0.168-8.247,0.475c-0.909,0.103-1.785,0.307-2.683,0.446c-1.791,0.269-3.585,0.533-5.339,0.935
				c-1.046,0.241-2.057,0.579-3.083,0.866c-1.564,0.436-3.128,0.848-4.656,1.386c-1.069,0.375-2.105,0.845-3.155,1.276
				c-1.43,0.58-2.858,1.149-4.246,1.826c-1.053,0.513-2.063,1.104-3.089,1.667c-1.323,0.73-2.646,1.452-3.919,2.248
				c-1.01,0.639-1.979,1.343-2.958,2.036c-1.221,0.861-2.436,1.732-3.602,2.667c-0.944,0.774-1.855,1.574-2.769,2.385
				c-1.118,0.995-2.226,2.009-3.289,3.079c-0.866,0.872-1.698,1.796-2.528,2.708c-0.579,0.652-1.128,1.335-1.688,1.995
				c12.15,17.37,31.667,27.634,52.954,27.634c22.499,0,43.224-11.634,55.003-30.59C267.232,217.799,266.717,217.232,266.18,216.685z
				"/>
			<path d="M264.954,342.713c3.485-3.589,6.844-7.286,10.057-11.092c0.379-0.451,0.747-0.903,1.113-1.354
				c3.223-3.878,6.311-7.831,9.239-11.9c0.305-0.415,0.588-0.856,0.892-1.274c2.939-4.143,5.744-8.373,8.396-12.688
				c0.229-0.379,0.45-0.782,0.681-1.161c2.641-4.404,5.166-8.897,7.502-13.49c0.153-0.331,0.314-0.65,0.473-0.972
				c2.351-4.667,4.545-9.438,6.562-14.283c0.104-0.257,0.198-0.509,0.294-0.751c2.036-4.955,3.905-9.979,5.584-15.096
				c0.043-0.138,0.074-0.274,0.127-0.399c1.685-5.238,3.223-10.562,4.546-15.959c4.221-17.228,6.351-34.842,6.351-52.35
				c0-78.019-41.689-150.511-109.021-189.942c-67.343,39.437-109.042,111.928-109.042,189.948c0,17.05,2.021,34.198,6.006,50.963
				c0,0,0.005,0,0.005,0.011c0.005,0.031,0.016,0.062,0.026,0.101c1.263,5.306,2.73,10.551,4.37,15.717
				c0.05,0.15,0.087,0.304,0.134,0.451c1.63,5.086,3.452,10.11,5.43,15.034c0.098,0.241,0.177,0.483,0.274,0.714
				c1.968,4.841,4.118,9.596,6.425,14.268c0.149,0.314,0.289,0.619,0.441,0.925c2.288,4.594,4.755,9.086,7.361,13.512
				c0.21,0.356,0.41,0.725,0.625,1.08c2.601,4.357,5.37,8.609,8.273,12.767c0.272,0.39,0.532,0.787,0.806,1.187
				c2.897,4.096,5.95,8.085,9.134,11.979c0.344,0.421,0.672,0.85,1.021,1.271c3.176,3.843,6.51,7.569,9.962,11.213
				c0.406,0.431,0.805,0.86,1.217,1.291c3.458,3.592,7.053,7.056,10.774,10.416c0.284,0.278,0.57,0.54,0.853,0.787
				c10.371-2.395,21.095-3.612,31.92-3.612c13.021,0,25.819,1.753,38.077,5.196c0.314-0.272,0.63-0.556,0.944-0.839
				c3.737-3.318,7.36-6.741,10.835-10.268C264.061,343.638,264.502,343.175,264.954,342.713z M212.748,259.705
				c-26.328,0-50.339-13.439-64.224-35.954c-7.37-11.947-11.263-25.617-11.263-39.528c0-41.623,33.866-75.486,75.486-75.486
				c41.622,0,75.48,33.864,75.48,75.486c0,12.552-3.138,24.985-9.092,35.949C265.908,244.555,240.47,259.705,212.748,259.705z"/>
			<path d="M328.501,253.678c-0.011,0.021-0.021,0.052-0.031,0.085c-1.322,4.607-2.813,9.134-4.399,13.616
				c-0.229,0.662-0.45,1.324-0.691,1.984c-1.565,4.273-3.267,8.494-5.071,12.657c-0.335,0.781-0.683,1.584-1.034,2.355
				c-1.854,4.142-3.812,8.216-5.905,12.227c-0.326,0.62-0.662,1.233-0.986,1.843c-2.216,4.152-4.526,8.269-6.993,12.278
				c-0.021,0.047-0.042,0.078-0.062,0.115c-2.478,4.032-5.124,7.959-7.854,11.831c-0.42,0.579-0.818,1.177-1.238,1.755
				c-2.636,3.675-5.396,7.265-8.264,10.782c-0.535,0.671-1.091,1.333-1.639,1.995c-2.906,3.495-5.91,6.929-9.037,10.258
				c-0.488,0.504-0.961,0.986-1.434,1.475c-3.271,3.438-6.63,6.797-10.159,10.048c-0.041,0.041-0.083,0.099-0.119,0.13
				c26.714,10.269,47.375,28.332,57.854,50.715c23.669,0.829,47.539-2.257,70.273-9.055
				C388.482,343.317,365.678,290.393,328.501,253.678z"/>
		<path d="M180.33,394.184h72.843c2.979,0,5.376-2.399,5.376-5.375c0-2.961-2.397-5.376-5.376-5.376H180.33
			c-2.968,0-5.375,2.415-5.375,5.376C174.954,391.784,177.356,394.184,180.33,394.184z"/>
		<path d="M180.33,413.848h72.843c2.979,0,5.376-2.415,5.376-5.375c0-2.977-2.397-5.376-5.376-5.376H180.33
			c-2.968,0-5.375,2.399-5.375,5.376C174.954,411.433,177.356,413.848,180.33,413.848z"/>
		<path d="M180.33,433.501h72.843c2.979,0,5.376-2.402,5.376-5.375c0-2.977-2.397-5.374-5.376-5.374H180.33
			c-2.968,0-5.375,2.397-5.375,5.374C174.954,431.099,177.356,433.501,180.33,433.501z"/>
</svg>