<?xml version="1.0" encoding="UTF-8" standalone="no"?>
<svg
   xmlns:osb="http://www.openswatchbook.org/uri/2009/osb"
   xmlns:dc="http://purl.org/dc/elements/1.1/"
   xmlns:cc="http://creativecommons.org/ns#"
   xmlns:rdf="http://www.w3.org/1999/02/22-rdf-syntax-ns#"
   xmlns:svg="http://www.w3.org/2000/svg"
   xmlns="http://www.w3.org/2000/svg"
   xmlns:xlink="http://www.w3.org/1999/xlink"
   version="1.1"
   id="Capa_1"
   x="0px"
   y="0px"
   viewBox="0 0 784.60867 348.0434"
   xml:space="preserve"
   width="784.60864"
   height="348.0434"><metadata
     id="metadata139"><rdf:RDF><cc:Work
         rdf:about=""><dc:format>image/svg+xml</dc:format><dc:type
           rdf:resource="http://purl.org/dc/dcmitype/StillImage" /><dc:title></dc:title></cc:Work></rdf:RDF></metadata><defs
     id="defs137"><linearGradient
       osb:paint="gradient"
       id="linearGradient9132"><stop
         id="stop9134"
         offset="0"
         style="stop-color:#4fbff0;stop-opacity:0" /><stop
         id="stop9136"
         offset="1"
         style="stop-color:#ffffff;stop-opacity:0" /></linearGradient><linearGradient
       id="linearGradient9088"
       osb:paint="gradient"><stop
         style="stop-color:#ffd42a;stop-opacity:1;"
         offset="0"
         id="stop9090" /><stop
         style="stop-color:#ffd42a;stop-opacity:0;"
         offset="1"
         id="stop9092" /></linearGradient><linearGradient
       id="linearGradient9080"
       osb:paint="solid"><stop
         style="stop-color:#72a6f3;stop-opacity:1;"
         offset="0"
         id="stop9082" /></linearGradient><linearGradient
       osb:paint="gradient"
       id="linearGradient7830-3"><stop
         id="stop7842"
         offset="0"
         style="stop-color:#97e9ff;stop-opacity:1;" /><stop
         id="stop7844"
         offset="1"
         style="stop-color:#000000;stop-opacity:0;" /></linearGradient><linearGradient
       id="linearGradient7830"
       osb:paint="gradient"><stop
         style="stop-color:#4fbff0;stop-opacity:1;"
         offset="0"
         id="stop7832" /><stop
         style="stop-color:#ffffff;stop-opacity:0"
         offset="1"
         id="stop7834" /></linearGradient><linearGradient
       xlink:href="#linearGradient7830"
       id="linearGradient9094"
       x1="-4612.4219"
       y1="181.92407"
       x2="6836.4189"
       y2="181.92407"
       gradientUnits="userSpaceOnUse" /><linearGradient
       xlink:href="#linearGradient9132"
       id="linearGradient9096"
       gradientUnits="userSpaceOnUse"
       x1="-890.82007"
       y1="2641.228"
       x2="-1225.8113"
       y2="630.00476" /><linearGradient
       xlink:href="#linearGradient7830"
       id="linearGradient9138"
       gradientUnits="userSpaceOnUse"
       x1="1397.5308"
       y1="-5965.0806"
       x2="1611.6398"
       y2="11184.502"
       gradientTransform="matrix(0.41169057,0,0,0.42882001,315.72502,158.32077)" /><linearGradient
       xlink:href="#linearGradient7830"
       id="linearGradient9140"
       gradientUnits="userSpaceOnUse"
       x1="-4612.4219"
       y1="181.92407"
       x2="6836.4189"
       y2="181.92407" /><linearGradient
       xlink:href="#linearGradient7830"
       id="linearGradient9142"
       gradientUnits="userSpaceOnUse"
       x1="-4612.4219"
       y1="181.92407"
       x2="6836.4189"
       y2="181.92407" /><linearGradient
       xlink:href="#linearGradient7830"
       id="linearGradient9144"
       gradientUnits="userSpaceOnUse"
       x1="-4612.4219"
       y1="181.92407"
       x2="6836.4189"
       y2="181.92407" /><linearGradient
       xlink:href="#linearGradient7830"
       id="linearGradient9146"
       gradientUnits="userSpaceOnUse"
       x1="-4612.4219"
       y1="181.92407"
       x2="6836.4189"
       y2="181.92407" /><linearGradient
       xlink:href="#linearGradient7830"
       id="linearGradient9148"
       gradientUnits="userSpaceOnUse"
       x1="-4612.4219"
       y1="181.92407"
       x2="6836.4189"
       y2="181.92407" /><linearGradient
       xlink:href="#linearGradient7830"
       id="linearGradient9150"
       gradientUnits="userSpaceOnUse"
       x1="-4612.4219"
       y1="181.92407"
       x2="6836.4189"
       y2="181.92407" /><linearGradient
       xlink:href="#linearGradient7830"
       id="linearGradient9152"
       gradientUnits="userSpaceOnUse"
       x1="-4612.4219"
       y1="181.92407"
       x2="6836.4189"
       y2="181.92407" /><linearGradient
       xlink:href="#linearGradient7830"
       id="linearGradient9154"
       gradientUnits="userSpaceOnUse"
       x1="-4612.4219"
       y1="181.92407"
       x2="6836.4189"
       y2="181.92407" /><linearGradient
       xlink:href="#linearGradient7830"
       id="linearGradient9156"
       gradientUnits="userSpaceOnUse"
       x1="-4612.4219"
       y1="181.92407"
       x2="6836.4189"
       y2="181.92407" /><linearGradient
       xlink:href="#linearGradient7830"
       id="linearGradient9158"
       gradientUnits="userSpaceOnUse"
       x1="-4612.4219"
       y1="181.92407"
       x2="6836.4189"
       y2="181.92407" /><linearGradient
       xlink:href="#linearGradient7830"
       id="linearGradient9160"
       gradientUnits="userSpaceOnUse"
       x1="-4612.4219"
       y1="181.92407"
       x2="6836.4189"
       y2="181.92407" /><linearGradient
       xlink:href="#linearGradient7830"
       id="linearGradient9162"
       gradientUnits="userSpaceOnUse"
       x1="-4612.4219"
       y1="181.92407"
       x2="6836.4189"
       y2="181.92407" /><linearGradient
       xlink:href="#linearGradient7830"
       id="linearGradient9164"
       gradientUnits="userSpaceOnUse"
       x1="-4612.4219"
       y1="181.92407"
       x2="6836.4189"
       y2="181.92407" /><linearGradient
       xlink:href="#linearGradient7830"
       id="linearGradient9166"
       gradientUnits="userSpaceOnUse"
       x1="-4612.4219"
       y1="181.92407"
       x2="6836.4189"
       y2="181.92407" /><linearGradient
       xlink:href="#linearGradient7830"
       id="linearGradient9168"
       gradientUnits="userSpaceOnUse"
       x1="-4612.4219"
       y1="181.92407"
       x2="6836.4189"
       y2="181.92407" /><linearGradient
       xlink:href="#linearGradient7830"
       id="linearGradient9170"
       gradientUnits="userSpaceOnUse"
       x1="-4612.4219"
       y1="181.92407"
       x2="6836.4189"
       y2="181.92407" /></defs><g
     id="g8231"
     transform="matrix(0.25,0,0,0.25,367.98175,-96.20789)"><g
       transform="matrix(0.666667,0,0,0.44121938,-418.39302,977.03703)"
       id="g7901"
       style="fill:url(#linearGradient9096);fill-opacity:1;stroke:none;stroke-width:13.9199934;stroke-miterlimit:4;stroke-dasharray:none;stroke-opacity:1"><path
         style="fill:url(#linearGradient9140);fill-opacity:1;stroke:none;stroke-width:13.9199934;stroke-miterlimit:4;stroke-dasharray:none;stroke-opacity:1"
         d="m 233.067,245.333 -54.4,-24.533 58.667,-71.467 123.733,55.467 c 3.2,1.067 5.333,2.133 8.533,2.133 8.533,0 16,-5.333 20.267,-13.867 4.267,-11.733 -1.067,-24.533 -11.733,-29.867 L 206.4,85.333 l -1.067,0 c -6.4,-3.2 -13.867,-3.2 -18.133,-3.2 -3.2,0 -12.8,5.333 -13.867,6.4 -19.2,23.467 -77.867,94.933 -77.867,94.933 0,0 -9.6,17.067 -9.6,33.067 -2.133,10.667 4.267,22.4 14.933,27.733 l 92.8,42.667 46.933,121.6 C 244.8,419.2 254.4,425.6 264,425.6 c 3.2,0 6.4,-1.067 9.6,-2.133 12.8,-5.333 19.2,-21.333 13.867,-36.267 l -54.4,-141.867 z"
         id="path7855" /><path
         style="fill:url(#linearGradient9142);fill-opacity:1;stroke:none;stroke-width:13.9199934;stroke-miterlimit:4;stroke-dasharray:none;stroke-opacity:1"
         id="ellipse7857"
         d="M 227.71954,40.901321 A 46.932999,50.132999 0 0 1 268.76286,-7.2263238 46.932999,50.132999 0 0 1 319.69738,28.525713 L 274.62827,42.513634 Z" /><g
         id="g7865"
         style="fill:url(#linearGradient9144);fill-opacity:1;stroke:none;stroke-width:13.9199934;stroke-miterlimit:4;stroke-dasharray:none;stroke-opacity:1" /><g
         id="g7867"
         style="fill:url(#linearGradient9146);fill-opacity:1;stroke:none;stroke-width:13.9199934;stroke-miterlimit:4;stroke-dasharray:none;stroke-opacity:1" /><g
         id="g7869"
         style="fill:url(#linearGradient9148);fill-opacity:1;stroke:none;stroke-width:13.9199934;stroke-miterlimit:4;stroke-dasharray:none;stroke-opacity:1" /><g
         id="g7871"
         style="fill:url(#linearGradient9150);fill-opacity:1;stroke:none;stroke-width:13.9199934;stroke-miterlimit:4;stroke-dasharray:none;stroke-opacity:1" /><g
         id="g7873"
         style="fill:url(#linearGradient9152);fill-opacity:1;stroke:none;stroke-width:13.9199934;stroke-miterlimit:4;stroke-dasharray:none;stroke-opacity:1" /><g
         id="g7875"
         style="fill:url(#linearGradient9154);fill-opacity:1;stroke:none;stroke-width:13.9199934;stroke-miterlimit:4;stroke-dasharray:none;stroke-opacity:1" /><g
         id="g7877"
         style="fill:url(#linearGradient9156);fill-opacity:1;stroke:none;stroke-width:13.9199934;stroke-miterlimit:4;stroke-dasharray:none;stroke-opacity:1" /><g
         id="g7879"
         style="fill:url(#linearGradient9158);fill-opacity:1;stroke:none;stroke-width:13.9199934;stroke-miterlimit:4;stroke-dasharray:none;stroke-opacity:1" /><g
         id="g7881"
         style="fill:url(#linearGradient9160);fill-opacity:1;stroke:none;stroke-width:13.9199934;stroke-miterlimit:4;stroke-dasharray:none;stroke-opacity:1" /><g
         id="g7883"
         style="fill:url(#linearGradient9162);fill-opacity:1;stroke:none;stroke-width:13.9199934;stroke-miterlimit:4;stroke-dasharray:none;stroke-opacity:1" /><g
         id="g7885"
         style="fill:url(#linearGradient9164);fill-opacity:1;stroke:none;stroke-width:13.9199934;stroke-miterlimit:4;stroke-dasharray:none;stroke-opacity:1" /><g
         id="g7887"
         style="fill:url(#linearGradient9166);fill-opacity:1;stroke:none;stroke-width:13.9199934;stroke-miterlimit:4;stroke-dasharray:none;stroke-opacity:1" /><g
         id="g7889"
         style="fill:url(#linearGradient9168);fill-opacity:1;stroke:none;stroke-width:13.9199934;stroke-miterlimit:4;stroke-dasharray:none;stroke-opacity:1" /><g
         id="g7891"
         style="fill:url(#linearGradient9170);fill-opacity:1;stroke:none;stroke-width:13.9199934;stroke-miterlimit:4;stroke-dasharray:none;stroke-opacity:1" /><g
         id="g7893"
         style="fill:url(#linearGradient9094);fill-opacity:1;stroke:none;stroke-width:13.9199934;stroke-miterlimit:4;stroke-dasharray:none;stroke-opacity:1" /><rect
         style="opacity:1;fill:url(#linearGradient9138);fill-opacity:1;stroke:none;stroke-width:13.91999245;stroke-linecap:butt;stroke-linejoin:miter;stroke-miterlimit:4;stroke-dasharray:none;stroke-opacity:1"
         id="rect9054"
         width="4707.6494"
         height="3153.5024"
         x="-1580.3002"
         y="-1340.4177" /></g><g
       transform="translate(-423.5619,1211.8816)"
       id="g7978"><g
         id="XMLID_11_"><path
           id="XMLID_1837_"
           style="fill:#616064"
           d="m 30,235 c 0,-22.094 17.908,-40 40,-40 l 0,-30 c -38.659,0 -70,31.338 -70,70 0,38.662 31.341,70 70,70 l 0,-30 C 47.908,275 30,257.092 30,235 Z" /><path
           id="XMLID_1838_"
           style="fill:#565659"
           d="M 76.893,195.604 89.546,167.787 C 83.34,165.984 76.787,165 70,165 l 0,30 c 2.352,0 4.652,0.215 6.893,0.604 z" /><path
           id="XMLID_1839_"
           style="fill:#565659"
           d="m 70,275 0,30 c 36.961,0 67.209,-28.649 69.799,-64.952 l -30.124,-0.022 C 107.201,259.742 90.388,275 70,275 Z" /><path
           id="XMLID_1840_"
           style="fill:#565659"
           d="m 115.943,182.211 -12.649,27.809 32.109,0.025 c -4.133,-10.826 -10.876,-20.356 -19.46,-27.834 z" /><path
           id="XMLID_1841_"
           style="fill:#ffffff"
           d="m 30,235 c 0,22.092 17.908,40 40,40 20.388,0 37.201,-15.258 39.675,-34.975 L 79.988,240.002 66.345,218.791 76.892,195.603 C 74.652,195.215 72.352,195 70,195 47.908,195 30,212.906 30,235 Z" /><path
           id="XMLID_1842_"
           style="fill:#616064"
           d="m 250,235 c 0,-13.078 6.277,-24.688 15.981,-31.986 L 258.739,172.37 C 235.776,183.854 220,207.577 220,235 c 0,38.662 31.341,70 70,70 l 0,-30 c -22.091,0 -40,-17.908 -40,-40 z" /><path
           id="XMLID_1843_"
           style="fill:#565659"
           d="m 290,165 c -0.661,0 -1.315,0.031 -1.973,0.05 l 1.973,8.275 5.25,22.028 C 314.857,197.926 330,214.688 330,235 c 0,22.092 -17.909,40 -40,40 l 0,30 c 38.659,0 70,-31.338 70,-70 0,-38.662 -31.341,-70 -70,-70 z" /><path
           id="XMLID_1844_"
           style="fill:#ffffff"
           d="m 274.82,240.413 -8.839,-37.399 C 256.277,210.313 250,221.922 250,235 c 0,22.092 17.909,40 40,40 22.091,0 40,-17.908 40,-40 0,-20.313 -15.143,-37.074 -34.75,-39.646 l 10.738,45.06 -31.168,0 z" /><polygon
           id="XMLID_1845_"
           style="fill:#bf3c1a"
           points="254.652,155.079 258.739,172.37 265.981,203.014 274.82,240.413 305.988,240.413 295.25,195.354 290,173.325 288.027,165.05 268.95,85 300,85 300,55 231,55 247.563,125.079 180,125.079 180,155.079 " /><path
           id="XMLID_1846_"
           style="fill:#ff5023"
           d="m 160,125.079 -51.028,0 -19.426,42.707 -12.653,27.817 -10.547,23.188 13.643,21.211 29.687,0.023 30.124,0.022 14.213,0.011 c -2.547,-4.408 -4.012,-9.521 -4.012,-14.979 0,-5.474 1.474,-10.602 4.035,-15.02 l -18.632,-0.015 -32.109,-0.025 12.649,-27.809 14.052,-30.894 25.601,56.323 c 5.443,-7.602 14.342,-12.561 24.404,-12.561 0.98,0 1.949,0.051 2.905,0.143 l -18.247,-40.143 15.341,0 0,-30 -20,0 z" /><path
           id="XMLID_1847_"
           style="fill:#dedde0"
           d="m 155.596,207.641 c -0.558,0.779 -1.078,1.586 -1.561,2.419 -2.562,4.418 -4.035,9.546 -4.035,15.02 0,5.458 1.465,10.571 4.012,14.979 5.186,8.977 14.878,15.021 25.988,15.021 l 0,-60 c -10.062,-0.001 -18.961,4.959 -24.404,12.561 z" /><path
           id="XMLID_1848_"
           style="fill:#cdcdd0"
           d="m 180,255.079 c 16.568,0 30,-13.432 30,-30 0,-15.588 -11.891,-28.396 -27.095,-29.857 -0.956,-0.092 -1.925,-0.143 -2.905,-0.143 l 0,60 z" /><polygon
           id="XMLID_1849_"
           style="fill:#565659"
           points="80,125.079 108.972,125.079 160,125.079 160,95.079 80,95.079 " /></g><g
         id="g7942" /><g
         id="g7944" /><g
         id="g7946" /><g
         id="g7948" /><g
         id="g7950" /><g
         id="g7952" /><g
         id="g7954" /><g
         id="g7956" /><g
         id="g7958" /><g
         id="g7960" /><g
         id="g7962" /><g
         id="g7964" /><g
         id="g7966" /><g
         id="g7968" /><g
         id="g7970" /></g></g><rect
     style="opacity:1;fill:#ffffff;fill-opacity:0;stroke:none;stroke-width:3;stroke-linecap:butt;stroke-linejoin:miter;stroke-miterlimit:4;stroke-dasharray:none;stroke-opacity:1"
     id="rect6334"
     width="721.63867"
     height="333.20285"
     x="38.012157"
     y="0"
     ry="0" /><g
     id="g105"
     transform="translate(-84.666078,595.83016)" /><g
     id="g107"
     transform="translate(-84.666078,595.83016)" /><g
     id="g109"
     transform="translate(-84.666078,595.83016)" /><g
     id="g111"
     transform="translate(-84.666078,595.83016)" /><g
     id="g113"
     transform="translate(-84.666078,595.83016)" /><g
     id="g115"
     transform="translate(-84.666078,595.83016)" /><g
     id="g117"
     transform="translate(-84.666078,595.83016)" /><g
     id="g119"
     transform="translate(-84.666078,595.83016)" /><g
     id="g121"
     transform="translate(-84.666078,595.83016)" /><g
     id="g123"
     transform="translate(-84.666078,595.83016)" /><g
     id="g125"
     transform="translate(-84.666078,595.83016)" /><g
     id="g127"
     transform="translate(-84.666078,595.83016)" /><g
     id="g129"
     transform="translate(-84.666078,595.83016)" /><g
     id="g131"
     transform="translate(-84.666078,595.83016)" /><g
     id="g133"
     transform="translate(-84.666078,595.83016)" /><g
     id="g4695"
     transform="matrix(0.140625,0,0,0.140625,500.34864,214.91907)"><path
       id="path4595"
       d="m 279.97,63.235 c 5.818,-24.848 28.105,-43.348 54.726,-43.348 43.902,0 79.496,35.594 79.496,79.503 l 0,168.597 c 0,21.436 17.383,38.818 38.818,38.818 l 10.745,0 c 0,0 -53.387,35.942 -107.545,12.112 l -68.627,-40.334"
       style="fill:#666666" /><path
       id="path4597"
       d="M 393.62,318.917 324.993,278.583 317.38,63.235 c 4.518,-19.297 18.969,-34.758 37.668,-40.706 -6.497,-1.717 -13.316,-2.641 -20.353,-2.641 -26.621,0 -48.908,18.499 -54.726,43.348 l 7.612,215.348 68.627,40.334 c 20.614,9.07 41.112,9.477 58.6,6.507 -6.968,-1.285 -14.071,-3.377 -21.188,-6.508 z"
       style="fill:#4d4d4d" /><circle
       id="circle4599"
       r="81.237"
       cy="333.397"
       cx="88.818001"
       style="fill:#ea8249" /><path
       id="path4601"
       d="m 54.779,333.392 c 0,-44.866 15.24,-81.237 34.04,-81.237 -44.866,0 -81.237,36.372 -81.237,81.237 0,44.865 36.372,81.237 81.237,81.237 -18.8,0 -34.04,-36.371 -34.04,-81.237 z"
       style="fill:#d36f3d" /><path
       id="path4603"
       d="m 298.518,325.709 -102.152,0 c -36.997,0 -66.989,29.992 -66.989,66.989 l 0,98.331 236.13,0 0,-98.331 c 0,-36.997 -29.991,-66.989 -66.989,-66.989 z"
       style="fill:#90bc42" /><path
       id="path4605"
       d="m 295.236,288.339 0,61.021 c 0,26.396 -21.401,47.797 -47.797,47.797 -26.403,0 -47.797,-21.401 -47.797,-47.797 l 0,-61.021 95.594,0 z"
       style="fill:#e0b394" /><path
       id="path4607"
       d="m 237.641,325.709 -41.275,0 c -36.997,0 -66.989,29.992 -66.989,66.989 l 0,98.331 41.275,0 0,-98.331 c 0.001,-36.997 29.992,-66.989 66.989,-66.989 z"
       style="fill:#83a538" /><g
       id="g4609"><path
         id="path4611"
         d="m 133.256,234.147 c -13.431,-0.596 -24.122,-11.677 -24.122,-25.249 0,-13.951 11.308,-25.27 25.27,-25.27 1.256,0 2.491,0.087 3.704,0.271"
         style="fill:#e0b394" /><path
         id="path4613"
         d="m 361.609,234.147 c 13.431,-0.596 24.133,-11.677 24.133,-25.249 0,-13.951 -11.319,-25.27 -25.281,-25.27 -1.257,0 -2.502,0.097 -3.704,0.271"
         style="fill:#e0b394" /></g><path
       id="path4615"
       d="m 210.88,343.378 -44.463,-32.304 c -23.496,-17.071 -36.207,-45.3 -33.413,-74.209 l 7.712,-79.805 c 5.312,-54.965 51.501,-96.906 106.722,-96.906 l 0,0 c 55.221,0 101.41,41.941 106.722,96.906 l 7.712,79.805 c 2.794,28.909 -9.916,57.137 -33.413,74.209 l -44.463,32.304 c -21.799,15.838 -51.317,15.838 -73.116,0 z"
       style="fill:#f7cba4" /><path
       id="path4617"
       d="m 160.673,252.593 c -0.747,12.641 3.369,25.075 11.514,34.77 l 46.471,57.104 c 2.426,2.892 5.178,5.318 8.156,7.257 -5.589,-1.95 -10.962,-4.744 -15.933,-8.351 l -44.464,-32.3 c -23.494,-17.071 -36.199,-45.298 -33.405,-74.208 l 7.701,-79.808 c 5.264,-54.429 50.605,-96.088 105.121,-96.878 -33.578,0.812 -71.6,32.462 -73.583,66.171 l -11.578,126.243 z"
       style="fill:#e0b394" /><path
       id="path4619"
       d="m 342.562,117.864 -190.247,0 c 17.981,-34.51 54.05,-57.711 95.124,-57.711 27.61,0 52.967,10.485 72.074,27.848 9.314,8.46 17.156,18.555 23.049,29.863 z"
       style="fill:#666666" /><path
       id="path4621"
       d="m 152.315,117.863 47.659,0 c 8.972,-34.51 26.97,-57.711 47.464,-57.711 -41.073,10e-4 -77.143,23.202 -95.123,57.711 z"
       style="fill:#4d4d4d" /><polygon
       id="polygon4623"
       points="353.068,117.864 362.611,163.714 132.265,163.714 141.808,117.864 152.315,117.864 342.562,117.864 "
       style="fill:#90bc42" /><polygon
       id="polygon4625"
       points="197.255,163.714 206.798,117.863 152.315,117.863 141.808,117.863 132.265,163.714 "
       style="fill:#83a538" /><g
       id="g4627"><rect
         id="rect4629"
         height="79.125"
         width="44.153"
         style="fill:#71c5f4"
         y="411.905"
         x="320.47501" /><rect
         id="rect4631"
         height="79.125"
         width="44.153"
         style="fill:#71c5f4"
         y="411.905"
         x="427.75101" /></g><path
       id="path4633"
       d="m 154.624,331.044 c -20.556,12.479 -32.829,34.269 -32.829,58.286 l 0,64.441 c 0,4.486 3.637,8.124 8.124,8.124 4.486,0 8.124,-3.637 8.124,-8.124 l 0,-64.441 c 0,-18.292 9.35,-34.889 25.012,-44.398 3.835,-2.329 5.056,-7.325 2.729,-11.16 -2.328,-3.835 -7.325,-5.057 -11.16,-2.728 z" /><path
       id="path4635"
       d="m 293.929,483.446 -155.886,0 0,-2.596 c 0,-4.486 -3.637,-8.124 -8.124,-8.124 -4.487,0 -8.124,3.637 -8.124,8.124 l 0,10.72 c 0,4.486 3.637,8.124 8.124,8.124 l 164.01,0 c 4.486,0 8.124,-3.637 8.124,-8.124 -10e-4,-4.487 -3.638,-8.124 -8.124,-8.124 z" /><path
       id="path4637"
       d="m 284.873,364.533 c -6.044,15.212 -20.525,25.042 -36.893,25.042 -16.36,0 -30.838,-9.83 -36.882,-25.042 -1.656,-4.17 -6.379,-6.208 -10.549,-4.55 -4.17,1.657 -6.207,6.38 -4.55,10.549 8.518,21.438 28.922,35.291 51.981,35.291 23.067,0 43.475,-13.853 51.992,-35.291 1.656,-4.169 -0.381,-8.892 -4.55,-10.549 -4.169,-1.658 -8.891,0.381 -10.549,4.55 z" /><path
       id="path4639"
       d="m 114.659,362.675 c -5.595,-1.649 -11.346,-2.728 -17.176,-3.255 l 0,-50.965 c 8.672,-0.779 17.125,-2.801 25.217,-6.057 4.163,-1.675 6.178,-6.407 4.504,-10.568 -1.675,-4.163 -6.407,-6.178 -10.568,-4.504 -6.155,2.477 -12.571,4.068 -19.153,4.793 l 0,-30.851 c 4.332,0.479 8.602,1.338 12.766,2.577 4.304,1.281 8.825,-1.17 10.104,-5.469 1.279,-4.3 -1.169,-8.823 -5.469,-10.104 -8.253,-2.456 -16.84,-3.701 -25.524,-3.701 -49.273,0 -89.36,40.087 -89.36,89.362 0,49.275 40.087,89.361 89.361,89.361 6.059,0 12.116,-0.611 18.002,-1.815 4.395,-0.9 7.229,-5.193 6.329,-9.588 -0.9,-4.396 -5.192,-7.227 -9.588,-6.329 -2.18,0.446 -4.392,0.779 -6.619,1.025 l 0,-30.847 c 4.269,0.471 8.479,1.312 12.583,2.521 4.302,1.272 8.82,-1.193 10.089,-5.496 1.268,-4.304 -1.194,-8.821 -5.498,-10.09 z M 81.236,292.122 c -13.705,-1.505 -26.552,-6.81 -37.324,-15.398 10.49,-8.351 23.312,-13.885 37.324,-15.442 l 0,30.84 z m -48.909,-3.861 c 13.926,11.593 30.849,18.573 48.909,20.189 l 0,50.968 C 63.171,361.034 46.25,368.015 32.332,379.61 22.279,367.086 16.246,351.204 16.246,333.932 c 0,-17.268 6.031,-33.147 16.081,-45.671 z m 48.909,87.486 0,30.837 c -14.009,-1.557 -26.828,-7.088 -37.317,-15.437 10.765,-8.59 23.609,-13.895 37.317,-15.4 z" /><path
       id="path4641"
       d="m 503.875,443.884 -23.303,0 0,-31.439 c 0,-4.486 -3.637,-8.124 -8.124,-8.124 l -44.153,0 c -4.486,0 -8.124,3.637 -8.124,8.124 l 0,31.439 -46.871,0 0,-31.439 c 0,-4.486 -3.637,-8.124 -8.124,-8.124 l -44.154,0 c -4.486,0 -8.124,3.637 -8.124,8.124 l 0,31.439 -23.302,0 c -4.486,0 -8.124,3.637 -8.124,8.124 0,4.486 3.637,8.124 8.124,8.124 l 23.302,0 0,31.439 c 0,4.486 3.637,8.124 8.124,8.124 l 44.154,0 c 4.486,0 8.124,-3.637 8.124,-8.124 l 0,-31.439 46.872,0 0,31.439 c 0,4.486 3.637,8.124 8.124,8.124 l 44.153,0 c 4.486,0 8.124,-3.637 8.124,-8.124 l 0,-31.439 23.303,0 c 4.486,0 8.124,-3.637 8.124,-8.124 -10e-4,-4.487 -3.638,-8.124 -8.125,-8.124 z m -146.823,39.562 -27.907,0 0,-62.878 27.907,0 0,62.878 z m 107.272,0 -27.906,0 0,-62.878 27.906,0 0,62.878 z" /><path
       id="path4643"
       d="m 199.762,215.061 c -4.486,0 -8.124,3.637 -8.124,8.124 l 0,12.994 c 0,4.486 3.637,8.124 8.124,8.124 4.487,0 8.124,-3.637 8.124,-8.124 l 0,-12.994 c -0.001,-4.487 -3.638,-8.124 -8.124,-8.124 z" /><path
       id="path4645"
       d="m 271.882,197.402 c -3.173,3.173 -3.173,8.317 0,11.488 3.173,3.173 8.317,3.173 11.488,0 7.074,-7.073 18.584,-7.073 25.658,0 1.586,1.586 3.665,2.38 5.744,2.38 2.079,0 4.158,-0.793 5.744,-2.38 3.173,-3.173 3.173,-8.317 0,-11.488 -13.406,-13.41 -35.226,-13.41 -48.634,0 z" /><path
       id="path4647"
       d="m 212.591,208.891 c 1.586,1.586 3.665,2.38 5.744,2.38 2.079,0 4.158,-0.793 5.744,-2.38 3.173,-3.173 3.173,-8.317 0,-11.488 -13.407,-13.408 -35.226,-13.41 -48.635,0 -3.173,3.173 -3.173,8.317 0,11.488 3.173,3.173 8.317,3.173 11.488,0 7.075,-7.073 18.583,-7.074 25.659,0 z" /><path
       id="path4649"
       d="m 296.2,215.061 c -4.486,0 -8.124,3.637 -8.124,8.124 l 0,12.994 c 0,4.486 3.637,8.124 8.124,8.124 4.486,0 8.124,-3.637 8.124,-8.124 l 0,-12.994 c 0,-4.487 -3.638,-8.124 -8.124,-8.124 z" /><path
       id="path4651"
       d="m 273.581,279.338 c -14.116,14.116 -37.084,14.117 -51.202,0 -3.173,-3.174 -8.317,-3.173 -11.488,0 -3.173,3.173 -3.173,8.317 0,11.488 10.225,10.225 23.657,15.339 37.09,15.339 13.432,0 26.864,-5.113 37.09,-15.339 3.173,-3.173 3.173,-8.317 0,-11.488 -3.173,-3.173 -8.317,-3.173 -11.49,0 z" /><path
       id="path4653"
       d="m 239.487,261.794 16.986,0 c 4.486,0 8.124,-3.637 8.124,-8.124 0,-4.487 -3.637,-8.124 -8.124,-8.124 l -0.369,0 0,-16.789 c 0,-4.486 -3.637,-8.124 -8.124,-8.124 -4.487,0 -8.124,3.637 -8.124,8.124 l 0,16.789 -0.369,0 c -4.486,0 -8.124,3.637 -8.124,8.124 0,4.487 3.637,8.124 8.124,8.124 z" /><path
       id="path4655"
       d="m 125.148,241.186 c -1.355,30.046 12.561,59.222 37.038,77.007 l 44.463,32.299 c 12.362,8.983 26.845,13.473 41.332,13.472 14.484,-10e-4 28.971,-4.492 41.33,-13.472 l 44.465,-32.3 c 24.476,-17.784 38.392,-46.962 37.037,-77.009 13.734,-4.182 23.595,-16.911 23.595,-31.94 0,-17.182 -13.05,-31.371 -29.762,-33.191 l -0.364,-3.76 c 2.018,-0.283 3.874,-1.308 5.179,-2.91 1.542,-1.897 2.149,-4.388 1.65,-6.782 l -9.549,-45.851 c -0.784,-3.767 -4.105,-6.468 -7.953,-6.468 l -5.702,0 C 341.937,99.937 334.423,90.617 325.517,82.529 314.993,72.966 302.93,65.533 289.946,60.462 c 6.736,-19.028 24.657,-31.909 45.291,-31.909 39.355,0 71.372,32.021 71.372,71.379 l 0,168.597 c 0,19.676 12.168,36.562 29.374,43.531 -19.213,6.991 -47.63,12.427 -75.959,-0.038 -4.107,-1.808 -8.9,0.056 -10.707,4.164 -1.807,4.107 0.057,8.9 4.164,10.707 14.739,6.485 29.328,8.914 42.929,8.913 39.547,-0.003 70.689,-20.554 72.424,-21.722 2.964,-1.995 4.276,-5.693 3.233,-9.111 -1.043,-3.417 -4.197,-5.753 -7.77,-5.753 l -10.745,0 c -16.926,0 -30.695,-13.769 -30.695,-30.695 l 0,-168.593 c 0,-48.318 -39.306,-87.627 -87.619,-87.627 -27.829,0 -51.969,17.519 -60.812,43.324 -8.594,-2.02 -17.461,-3.059 -26.444,-3.059 -41.496,0 -79.327,21.991 -99.918,57.711 l -5.712,0 c -3.848,0 -7.168,2.7 -7.953,6.468 L 124.85,162.6 c -0.498,2.394 0.107,4.885 1.65,6.782 1.303,1.603 3.16,2.629 5.179,2.91 l -0.363,3.757 c -16.711,1.816 -29.762,16.007 -29.762,33.192 -0.001,15.033 9.86,27.765 23.594,31.945 z m 199.079,63.861 -44.465,32.3 c -19.01,13.814 -44.554,13.813 -63.564,0 l -44.463,-32.299 c -21.076,-15.314 -32.611,-40.931 -30.104,-66.854 l 6.363,-65.814 199.974,0 6.363,65.814 c 2.506,25.923 -9.029,51.54 -30.104,66.853 z m 53.934,-95.804 c 0,6.465 -3.558,12.091 -8.854,15.014 l -3.029,-31.322 c 6.886,2.229 11.883,8.693 11.883,16.308 z m -49.573,-98.962 -72.483,0 0,-41.113 c 21.717,1.776 42.238,10.62 58.489,25.388 5.244,4.763 9.916,10.028 13.994,15.725 z m -88.731,-41.121 0,41.121 -72.515,0 c 16.893,-23.69 43.309,-38.75 72.515,-41.121 z m -90.899,57.368 198.045,0 6.165,29.604 -210.376,0 6.166,-29.604 z m -19.275,66.404 -3.029,31.327 c -5.296,-2.921 -8.854,-8.549 -8.854,-15.017 0.001,-7.617 4.997,-14.082 11.883,-16.31 z" /><path
       id="path4657"
       d="m 330.173,333.772 c -2.328,3.835 -1.107,8.831 2.729,11.16 15.661,9.508 25.012,26.105 25.012,44.398 0,4.486 3.637,8.124 8.124,8.124 4.486,0 8.124,-3.637 8.124,-8.124 0,-24.017 -12.272,-45.807 -32.829,-58.286 -3.834,-2.328 -8.831,-1.107 -11.16,2.728 z" /><g
       id="g4659" /><g
       id="g4661" /><g
       id="g4663" /><g
       id="g4665" /><g
       id="g4667" /><g
       id="g4669" /><g
       id="g4671" /><g
       id="g4673" /><g
       id="g4675" /><g
       id="g4677" /><g
       id="g4679" /><g
       id="g4681" /><g
       id="g4683" /><g
       id="g4685" /><g
       id="g4687" /></g><g
     id="g5206"
     transform="matrix(0.28125,0,0,0.28125,613.67405,110.1942)"><rect
       id="rect5114"
       height="54.577"
       width="32.671001"
       style="fill:#ff3f62"
       transform="matrix(-0.7071,-0.7071,0.7071,-0.7071,583.5655,557.293)"
       y="130.498"
       x="390.866" /><g
       id="g5116"><rect
         id="rect5118"
         height="58.32"
         width="46.602001"
         style="fill:#52a2e7"
         y="50.208"
         x="225.778" /><rect
         id="rect5120"
         height="50.014999"
         width="80.498001"
         style="fill:#52a2e7"
         y="7.6339998"
         x="208.83099" /></g><g
       id="g5122"><rect
         id="rect5124"
         height="24.424999"
         width="46.602001"
         style="fill:#4675cf"
         y="84.111"
         x="225.778" /><rect
         id="rect5126"
         height="10.01"
         width="46.602001"
         style="fill:#4675cf"
         y="57.646999"
         x="225.778" /></g><circle
       id="circle5128"
       r="202.28799"
       cy="302.073"
       cx="249.075"
       style="fill:#52a2e7" /><circle
       id="circle5130"
       r="171.052"
       cy="302.073"
       cx="249.075"
       style="fill:#cce4f7;stroke:#cce4f7;stroke-miterlimit:10" /><path
       id="path5132"
       d="m 247.308,329.914 0,0 c -11.222,0 -20.405,-9.182 -20.405,-20.405 l 0,-97.576 20.405,-31.913 0,0 20.405,31.913 0,97.576 c 0,11.224 -9.182,20.405 -20.405,20.405 z"
       style="fill:#4e8fe3" /><polygon
       id="polygon5134"
       points="254.164,330.932 216.006,369.539 194.572,348.355 226.904,315.644 269.216,272.834 308.806,232.778 339.457,223.202 330.239,253.963 269.465,315.451 "
       style="fill:#4675cf" /><g
       id="g5136"><path
         id="path5138"
         d="m 246.445,164.945 c -4.216,0 -7.634,-3.418 -7.634,-7.634 l 0,-25.179 c 0,-4.216 3.418,-7.634 7.634,-7.634 4.216,0 7.633,3.418 7.633,7.634 l 0,25.179 c 0.001,4.216 -3.417,7.634 -7.633,7.634 z"
         style="fill:#3c66b1" /><path
         id="path5140"
         d="m 246.445,480.736 c -4.216,0 -7.634,-3.418 -7.634,-7.634 l 0,-29.105 c 0,-4.216 3.418,-7.634 7.634,-7.634 4.216,0 7.633,3.418 7.633,7.634 l 0,29.105 c 0.001,4.216 -3.417,7.634 -7.633,7.634 z"
         style="fill:#3c66b1" /><path
         id="path5142"
         d="m 418.316,310.28 -25.281,0 c -4.216,0 -7.634,-3.418 -7.634,-7.634 0,-4.216 3.418,-7.634 7.634,-7.634 l 25.281,0 c 4.216,0 7.634,3.418 7.634,7.634 0,4.216 -3.417,7.634 -7.634,7.634 z"
         style="fill:#3c66b1" /><path
         id="path5144"
         d="m 106.339,310.28 -27.131,0 c -4.216,0 -7.634,-3.418 -7.634,-7.634 0,-4.216 3.418,-7.634 7.634,-7.634 l 27.131,0 c 4.216,0 7.634,3.418 7.634,7.634 0,4.216 -3.418,7.634 -7.634,7.634 z"
         style="fill:#3c66b1" /><path
         id="path5146"
         d="m 349.838,206.886 c -1.953,0 -3.907,-0.745 -5.397,-2.236 -2.981,-2.981 -2.981,-7.815 0,-10.795 l 18.138,-18.138 c 2.981,-2.981 7.815,-2.981 10.795,0 2.981,2.981 2.981,7.815 0,10.795 l -18.138,18.138 c -1.491,1.491 -3.444,2.236 -5.398,2.236 z"
         style="fill:#3c66b1" /><path
         id="path5148"
         d="m 128.144,428.58 c -1.953,0 -3.907,-0.745 -5.397,-2.236 -2.981,-2.981 -2.981,-7.815 0,-10.795 l 18.902,-18.901 c 2.981,-2.981 7.815,-2.982 10.795,0 2.981,2.981 2.981,7.815 0,10.795 l -18.902,18.901 c -1.49,1.491 -3.445,2.236 -5.398,2.236 z"
         style="fill:#3c66b1" /><path
         id="path5150"
         d="m 367.977,431.811 c -1.953,0 -3.907,-0.745 -5.397,-2.236 l -18.721,-18.721 c -2.981,-2.981 -2.981,-7.815 0,-10.795 2.981,-2.981 7.815,-2.981 10.795,0 l 18.721,18.721 c 2.981,2.981 2.981,7.815 0,10.795 -1.492,1.49 -3.445,2.236 -5.398,2.236 z"
         style="fill:#3c66b1" /><path
         id="path5152"
         d="m 145.69,209.525 c -1.953,0 -3.907,-0.745 -5.397,-2.236 l -19.271,-19.271 c -2.981,-2.981 -2.981,-7.815 0,-10.795 2.981,-2.981 7.815,-2.981 10.795,0 l 19.271,19.271 c 2.981,2.981 2.981,7.815 0,10.795 -1.492,1.49 -3.445,2.236 -5.398,2.236 z"
         style="fill:#3c66b1" /></g><rect
       id="rect5154"
       height="19.263"
       width="32.671001"
       style="fill:#c70024"
       transform="matrix(-0.7071,-0.7071,0.7071,-0.7071,613.7021,544.8072)"
       y="135.67"
       x="403.349" /><path
       id="path5156"
       d="m 437.782,161.847 -34.633,-34.633 c -1.456,-1.456 -1.456,-3.819 0,-5.276 l 19.52,-19.52 c 1.456,-1.456 3.819,-1.456 5.276,0 l 34.633,34.633 c 1.456,1.456 1.456,3.819 0,5.276 l -19.52,19.52 c -1.457,1.456 -3.82,1.456 -5.276,0 z"
       style="fill:#ff3f62" /><polygon
       id="polygon5158"
       points="401.033,191.163 65.676,305.695 64.303,266.995 366.73,163.71 "
       style="opacity:0.16000001;fill:#ffffff;stroke:#cce4f7;stroke-miterlimit:10;enable-background:new" /><path
       id="path5160"
       d="m 249.075,131.022 c 94.469,0 171.051,76.582 171.051,171.051 0,94.469 -76.581,171.052 -171.051,171.052 -94.47,0 -171.05,-76.583 -171.05,-171.052 0,-94.469 76.582,-171.051 171.05,-171.051 m 0,-20.356 c -25.831,0 -50.9,5.064 -74.51,15.05 -22.795,9.642 -43.263,23.44 -60.835,41.011 -17.572,17.572 -31.371,38.039 -41.012,60.835 -9.987,23.611 -15.05,48.679 -15.05,74.51 0,25.831 5.064,50.9 15.05,74.51 9.642,22.795 23.44,43.263 41.012,60.835 17.572,17.572 38.039,31.371 60.835,41.011 23.611,9.987 48.679,15.05 74.51,15.05 25.831,0 50.9,-5.064 74.51,-15.05 22.795,-9.642 43.263,-23.44 60.835,-41.011 17.572,-17.572 31.371,-38.039 41.012,-60.835 9.987,-23.611 15.05,-48.679 15.05,-74.51 0,-25.831 -5.064,-50.9 -15.05,-74.51 -9.642,-22.795 -23.44,-43.263 -41.012,-60.835 -17.572,-17.572 -38.039,-31.371 -60.835,-41.011 -23.609,-9.987 -48.678,-15.05 -74.51,-15.05 l 0,0 z"
       style="fill:#52a2e7" /><path
       id="path5162"
       d="m 82.615,414.937 c 36.332,53.945 97.973,89.429 167.904,89.429 111.724,0 202.293,-90.57 202.293,-202.293 0,-21.257 -3.29,-41.742 -9.372,-60.988 L 82.615,414.937 Z"
       style="opacity:0.08999999;fill:#5d5d5d;enable-background:new" /><path
       id="path5164"
       d="m 435.023,169.882 c 1.49,1.49 3.444,2.236 5.397,2.236 1.953,0 3.907,-0.745 5.397,-2.236 l 24.797,-24.797 c 1.432,-1.431 2.236,-3.373 2.236,-5.397 0,-2.024 -0.804,-3.966 -2.236,-5.397 L 430.705,94.383 c -1.431,-1.432 -3.373,-2.236 -5.397,-2.236 -2.024,0 -3.966,0.804 -5.397,2.236 l -24.796,24.797 c -2.981,2.981 -2.981,7.815 0,10.795 l 3.005,3.005 -11.04,11.039 C 357.506,118.164 320.639,100.458 280.012,94.432 l 0,-29.15 9.313,0 c 4.216,0 7.634,-3.418 7.634,-7.634 l 0,-50.014 C 296.959,3.418 293.541,0 289.325,0 L 208.83,0 c -4.216,0 -7.634,3.418 -7.634,7.634 l 0,50.014 c 0,4.216 3.418,7.634 7.634,7.634 l 9.313,0 0,29.148 C 117.003,109.432 39.15,196.828 39.15,302.072 39.15,417.827 133.323,512 249.077,512 c 115.754,0 209.927,-94.173 209.927,-209.928 0,-45.718 -14.699,-88.061 -39.607,-122.573 l 12.622,-12.622 3.004,3.005 z m -9.715,-59.307 29.113,29.113 -14.001,14.001 -3.005,-3.005 -23.105,-23.105 -3.005,-3.005 14.003,-13.999 z m -208.846,-95.308 65.228,0 0,34.747 -9.313,0 -46.603,0 -9.313,0 10e-4,-34.747 0,0 z m 16.946,76.879 0,-26.865 31.336,0 0,26.865 -31.336,0 z m 15.668,404.587 c -107.336,0 -194.661,-87.324 -194.661,-194.661 0,-107.335 87.324,-194.66 194.661,-194.66 107.335,0 194.66,87.324 194.66,194.66 0,107.338 -87.324,194.661 -194.66,194.661 z m 162.054,-330.557 -12.31,-12.31 10.094,-10.094 12.309,12.309 -10.093,10.095 z" /><path
       id="path5166"
       d="m 249.076,123.388 c -49.412,0 -94.202,20.164 -126.58,52.692 -0.524,0.316 -1.023,0.69 -1.475,1.142 -0.499,0.499 -0.906,1.051 -1.238,1.636 -30.588,32.082 -49.392,75.493 -49.392,123.215 0,97.541 78.564,177.065 175.736,178.648 0.107,0.004 0.211,0.016 0.319,0.016 0.064,0 0.126,-0.008 0.19,-0.01 0.813,0.011 1.624,0.032 2.441,0.032 98.527,0 178.684,-80.158 178.684,-178.685 0,-98.527 -80.158,-178.686 -178.685,-178.686 z m 143.96,186.892 19.252,0 c -1.983,39.893 -18.343,76.058 -43.986,103.428 l -13.649,-13.649 c -2.981,-2.981 -7.815,-2.981 -10.795,0 -2.981,2.981 -2.981,7.815 0,10.795 l 13.499,13.499 c -27.689,24.547 -63.738,39.858 -103.278,41.053 l 0,-21.408 c 0,-4.216 -3.418,-7.634 -7.633,-7.634 -4.216,0 -7.634,3.418 -7.634,7.634 l 0,21.161 c -38.79,-2.416 -73.952,-18.422 -100.777,-43.307 l 14.408,-14.408 c 2.981,-2.981 2.981,-7.814 0,-10.795 -2.98,-2.982 -7.814,-2.981 -10.795,0 l -14.314,14.313 C 103.14,383.94 87.781,348.852 85.864,310.28 l 20.475,0 c 4.216,0 7.634,-3.418 7.634,-7.634 0,-4.216 -3.418,-7.634 -7.634,-7.634 l -20.519,0 c 1.655,-38.733 16.855,-74.014 40.975,-101.22 l 13.497,13.497 c 1.49,1.49 3.444,2.236 5.397,2.236 1.953,0 3.907,-0.745 5.397,-2.236 2.981,-2.981 2.981,-7.815 0,-10.795 L 137.44,182.848 c 26.897,-25.201 62.294,-41.426 101.37,-43.86 l 0,18.324 c 0,4.216 3.418,7.634 7.633,7.634 4.216,0 7.634,-3.418 7.634,-7.634 l 0,-18.572 c 39.831,1.204 76.118,16.73 103.886,41.592 l -13.525,13.525 c -2.981,2.981 -2.981,7.815 0,10.795 1.49,1.49 3.444,2.236 5.397,2.236 1.953,0 3.907,-0.745 5.397,-2.236 l 13.618,-13.618 c 25.568,27.56 41.765,63.924 43.477,103.981 l -19.296,0 c -4.216,0 -7.634,3.418 -7.634,7.634 0,4.216 3.424,7.631 7.639,7.631 z" /><path
       id="path5168"
       d="m 337.181,214.898 -30.652,9.576 c -1.192,0.373 -2.275,1.032 -3.152,1.92 l -28.03,28.36 0,-42.82 c 0,-1.458 -0.417,-2.883 -1.202,-4.112 L 253.74,175.909 c -1.403,-2.194 -3.827,-3.522 -6.431,-3.522 -2.605,0 -5.028,1.327 -6.431,3.522 l -20.405,31.913 c -0.785,1.228 -1.202,2.654 -1.202,4.112 l 0,97.576 c 0,0.641 0.03,1.276 0.072,1.907 l -30.199,30.553 c -2.964,2.998 -2.935,7.832 0.063,10.795 l 21.434,21.185 c 1.488,1.471 3.427,2.205 5.366,2.205 1.968,0 3.937,-0.757 5.429,-2.268 l 38.159,-38.607 c 0.308,-0.311 0.576,-0.647 0.819,-0.994 5.382,-2.858 9.726,-7.418 12.312,-12.959 0.785,-0.371 1.523,-0.875 2.169,-1.529 l 60.774,-61.488 c 0.878,-0.889 1.525,-1.979 1.884,-3.176 l 9.218,-30.761 c 0.81,-2.704 0.062,-5.636 -1.946,-7.62 -2.009,-1.983 -4.949,-2.697 -7.644,-1.855 z m -102.644,-0.732 12.771,-19.974 12.771,19.974 0,95.344 c 0,7.042 -5.729,12.771 -12.771,12.771 -7.042,0 -12.771,-5.729 -12.771,-12.771 l 0,-95.344 z m -18.594,143.561 -10.575,-10.453 20.046,-20.281 c 3.16,3.95 7.362,7.033 12.188,8.82 l -21.659,21.914 z m 107.53,-108.795 -48.127,48.693 0,-21.153 37.552,-37.993 15.124,-4.726 -4.549,15.179 z" /><g
       id="g5170" /><g
       id="g5172" /><g
       id="g5174" /><g
       id="g5176" /><g
       id="g5178" /><g
       id="g5180" /><g
       id="g5182" /><g
       id="g5184" /><g
       id="g5186" /><g
       id="g5188" /><g
       id="g5190" /><g
       id="g5192" /><g
       id="g5194" /><g
       id="g5196" /><g
       id="g5198" /></g><g
     id="g5447"
     transform="matrix(0.1875,0,0,0.1875,258.14836,77.36503)"><rect
       id="rect5369"
       height="41.542"
       width="27.886999"
       style="fill:#ffbcab"
       y="86.643997"
       x="261.52499" /><rect
       id="rect5371"
       height="23.013"
       width="27.886999"
       style="fill:#ff9478"
       y="86.643997"
       x="261.52499" /><g
       id="g5373"><path
         id="path5375"
         d="m 304.874,128.191 51.256,56.768 49.608,-32.96 2.752,4.488 c 6.431,10.488 3.406,24.185 -6.844,30.989 l -35.116,23.305 c -8.088,5.294 -18.815,3.982 -25.392,-3.103 l -39.741,-43.727 3.477,-35.76 z"
         style="fill:#ffbcab" /><path
         id="path5377"
         d="m 239.458,412.248 29.01,-131.712 -46.842,17.433 -14.229,85.783 c -0.231,1.394 -1.437,2.417 -2.851,2.417 l -77.696,0 -8.692,28.574 109.656,6.323 c 5.521,0.318 10.454,-3.419 11.644,-8.818 z"
         style="fill:#ffbcab" /></g><path
       id="path5379"
       d="m 226.428,303.654 c -17.365,-17.365 -17.365,-45.522 0,-62.887 l 3.543,-32.638 7.265,-61.822 16.209,-27.9 41.941,4.19 c 7.215,0.721 12.528,7.213 11.807,14.429 l -15.177,128.858"
       style="fill:#52a2e7" /><path
       id="path5381"
       d="m 251.866,145.832 -62.709,2.025 -6.876,59.162 -5.157,-0.79 c -12.187,-1.867 -20.71,-13.047 -19.28,-25.294 l 4.881,-41.813 c 1.182,-9.594 9.112,-16.937 18.768,-17.383 l 69.258,-3.381 c 7.675,-0.374 14.167,5.614 14.411,13.295 l 0,0 c 0.242,7.587 -5.709,13.933 -13.296,14.179 z"
       style="fill:#ffbcab" /><path
       id="path5383"
       d="m 91.981,455.497 0,-69.401 35.981,0 -17.137,60.67 c -1.864,6.378 -7.711,8.732 -14.355,8.732 l -4.488,0 0,-10e-4 z"
       style="fill:#9ce0b8" /><path
       id="path5385"
       d="m 221.625,297.969 -7.519,45.333 c 10.873,0.058 29.032,0.141 40.512,0.114 l 13.849,-62.88 -46.842,17.433 z"
       style="fill:#52a2e7" /><path
       id="path5387"
       d="m 311,19.697 c -4.482,-7.24 -12.496,-12.09 -21.59,-12.09 l -24.335,0 c -13.956,0 -25.375,11.419 -25.375,25.375 l 0,20.547 C 282.148,51.975 303.151,30.4 311,19.697 Z"
       style="fill:#781900" /><path
       id="path5389"
       d="m 239.701,53.528 0,20.748 c 0,13.956 11.419,25.375 25.375,25.375 l 24.335,0 c 13.956,0 25.375,-11.419 25.375,-25.375 l 0,-41.296 c 0,-4.862 -1.389,-9.414 -3.785,-13.285 -7.85,10.705 -28.853,32.28 -71.3,33.833 z"
       style="fill:#ffbcab" /><path
       id="path5391"
       d="m 365.957,504.394 -69.402,0 0,-35.981 59.115,17.275 c 6.097,1.782 10.288,7.372 10.288,13.725 l -0.001,4.981 0,0 z"
       style="fill:#9ce0b8" /><path
       id="path5393"
       d="m 323.104,476.813 -26.549,-8.401 0,-97.209 2.36,3.852 -55.464,-94.704 48.566,-14.466 38.405,91.667 c 0.671,1.603 0.957,3.342 0.834,5.077 l -8.152,114.184 z"
       style="fill:#ffbcab" /><polygon
       id="polygon5395"
       points="278.599,340.365 312.667,315.175 292.017,265.884 243.45,280.35 "
       style="fill:#52a2e7" /><g
       id="g5397"><path
         id="path5399"
         d="m 234.322,171.105 c 0.04,-0.339 -3.587,30.524 -3.587,30.524 l 67.625,10.391 3.748,-31.822 -67.786,-9.093 z"
         style="fill:#315591" /></g><g
       id="g5401"
       style="opacity:0.46000001"><path
         id="path5403"
         d="m 296.582,496.764 0,7.63 69.402,0 0,-4.982 c 0,-0.902 -0.093,-1.786 -0.256,-2.648 l -69.146,0 z"
         style="fill:#24763d" /></g><g
       id="g5405"
       style="opacity:0.46000001"><path
         id="path5407"
         d="m 99.611,386.095 -7.63,0 0,69.402 4.982,0 c 0.902,0 1.786,-0.093 2.648,-0.256 l 0,-69.146 z"
         style="fill:#24763d" /></g><path
       id="path5409"
       d="m 426.501,171.307 -14.279,-23.284 c -1.079,-1.76 -2.828,-3.006 -4.845,-3.451 -2.017,-0.445 -4.127,-0.051 -5.847,1.092 l -44.149,29.332 -46.658,-51.675 c -2.703,-3.626 -6.56,-6.361 -11.101,-7.619 l 0,-16.764 c 10.812,-4.99 18.338,-15.927 18.338,-28.596 l 0,-38.86 C 317.961,14.123 303.837,0 286.477,0 l -22.899,0 c -17.36,0 -31.482,14.123 -31.482,31.482 l 0,38.858 c 0,13.064 7.999,24.292 19.355,29.051 l 0,11.37 c -0.357,0 -0.711,-0.017 -1.07,0 l -69.237,3.38 c -13.404,0.618 -24.325,10.732 -25.973,24.098 L 147.728,202 c -0.475,4.066 2.355,7.78 6.402,8.4 l 26.999,4.136 c 0.383,0.059 0.769,0.087 1.152,0.087 1.656,0 3.279,-0.542 4.612,-1.558 1.643,-1.252 2.705,-3.118 2.943,-5.17 l 6.119,-52.649 32.697,-1.057 -6.242,53.117 -3.267,30.089 c -8.627,9.573 -13.345,21.83 -13.345,34.814 0,9.866 2.738,19.307 7.833,27.476 l -13.083,78.877 -71.568,0 c -0.335,-0.046 -0.673,-0.074 -1.016,-0.074 l -35.983,0 c -4.2,0 -7.606,3.405 -7.606,7.606 l 0,59.262 c 0,4.2 3.405,7.606 7.606,7.606 l 15.699,0 c 3.251,0 6.143,-2.067 7.196,-5.142 l 7.033,-20.549 c 1.329,1.139 3.053,1.83 4.942,1.83 l 109.161,0 0.254,0.039 c 0.381,0.057 0.762,0.085 1.137,0.085 3.515,0 6.642,-2.441 7.42,-5.971 l 20.089,-91.21 7.132,12.177 c 0.006,0.01 0.012,0.02 0.018,0.03 l 16.888,28.837 0,95.325 0,35.981 c 0,4.2 3.405,7.606 7.606,7.606 l 59.262,0 c 4.2,0 7.606,-3.405 7.606,-7.606 l 0,-15.699 c 0,-3.251 -2.067,-6.143 -5.142,-7.196 l -21.431,-7.335 c 1.613,-1.394 2.639,-3.452 2.639,-5.752 l 0,-93.358 c 0,-0.074 -0.001,-0.148 -0.003,-0.221 l -0.438,-15.064 c -0.027,-0.934 -0.227,-1.856 -0.588,-2.718 l -38.653,-92.263 9.468,-80.382 26.292,28.445 c 5.365,5.78 12.678,8.787 20.087,8.787 5.196,0 10.439,-1.481 15.086,-4.521 l 53.486,-35.497 c 3.408,-2.265 4.415,-6.823 2.274,-10.313 z m -159.838,-69.483 17.749,0 0,11.873 -17.749,-2.11 0,-9.763 z m -3.084,-86.613 22.899,0 c 3.1,0 5.989,0.887 8.458,2.397 -5.956,7.87 -20.696,22.917 -47.628,25.359 l 0,-11.485 c -0.001,-8.971 7.298,-16.271 16.271,-16.271 z m -16.272,43.003 c 28.341,-2.119 45.96,-15.772 55.441,-26.229 l 0,38.355 c 0,7.701 -5.384,14.155 -12.581,15.833 l -30.28,0 C 252.69,84.495 247.306,78.041 247.306,70.34 l 10e-4,-12.126 0,0 z m -58.396,82.041 c -3.765,0.122 -6.875,2.981 -7.31,6.723 l -5.965,51.327 -11.949,-1.83 6.587,-56.423 c 0.731,-5.934 5.598,-10.44 11.591,-10.716 l 69.257,-3.381 c 1.668,-0.076 3.244,0.495 4.465,1.621 1.221,1.126 1.922,2.66 1.974,4.319 0.108,3.383 -2.558,6.226 -5.942,6.335 l -62.708,2.025 z m -86.666,297.495 -2.658,0 0,-44.05 17.733,0 -15.075,44.05 z m 129.063,-23.86 -96.851,0 0,-20.116 72.539,0 c 3.72,0 6.895,-2.691 7.503,-6.361 l 6.055,-36.503 c 3.752,0.029 8.694,0.065 13.651,0.088 4.106,0.02 7.487,0.037 10.288,0.037 0.227,0 0.44,0 0.66,-0.001 l -13.845,62.856 z m 15.869,-72.049 c 0.014,-0.077 0.033,-0.152 0.051,-0.228 l -0.051,0.228 z m 21.366,-61.647 c -4.1,-0.908 -8.16,1.689 -9.064,5.791 l -10.973,49.821 c -5.791,0.027 -15.455,-0.012 -25.432,-0.087 l 4.062,-24.494 c 1.704,-0.158 3.365,-0.889 4.67,-2.193 2.97,-2.97 2.97,-7.786 0,-10.755 -6.963,-6.963 -10.796,-16.219 -10.796,-26.065 0,-9.846 3.834,-19.102 10.796,-26.065 1.226,-1.225 1.996,-2.833 2.183,-4.557 l 3.536,-32.572 6.501,-55.322 8.084,-0.262 c 11.762,-0.38 21.027,-10.259 20.654,-22.022 -0.038,-1.18 -0.193,-2.336 -0.416,-3.471 l 22.281,2.226 c 1.622,0.162 3.009,1.011 3.913,2.226 0.08,0.121 0.159,0.242 0.247,0.359 0.631,1 0.954,2.204 0.841,3.467 l -15.168,128.776 c -0.002,0.016 -10e-4,0.033 -0.003,0.05 -0.02,0.178 -0.028,0.359 -0.037,0.54 -0.003,0.073 -0.01,0.146 -0.011,0.219 -0.002,0.164 0.008,0.329 0.017,0.493 0.005,0.09 0.004,0.181 0.012,0.27 0.011,0.121 0.032,0.241 0.049,0.362 0.018,0.132 0.032,0.264 0.058,0.393 0.015,0.078 0.038,0.155 0.056,0.233 0.039,0.171 0.077,0.342 0.127,0.508 0.018,0.061 0.043,0.122 0.063,0.183 0.059,0.181 0.121,0.36 0.193,0.534 0.006,0.014 0.009,0.028 0.015,0.043 l 18.344,43.786 -22.463,16.609 -11.155,-19.047 4.606,-20.913 c 0.905,-4.103 -1.688,-8.161 -5.79,-9.064 z m 79.667,216.595 -44.05,0 0,-17.733 44.05,15.075 0,2.658 z m -23.934,-121.625 0,85.642 -20.116,0 0,-80.254 c 2.497,-2.379 3.135,-6.237 1.316,-9.342 l -16.862,-28.792 20.783,-15.367 14.484,34.572 0.395,13.541 z m 38.091,-170.748 c -5.003,3.275 -11.586,2.47 -15.642,-1.9 l -35.111,-37.986 1.826,-15.502 37.046,41.029 c 2.525,2.797 6.716,3.322 9.854,1.238 l 43.039,-28.595 6.32,10.305 -47.332,31.411 z" /><g
       id="g5411" /><g
       id="g5413" /><g
       id="g5415" /><g
       id="g5417" /><g
       id="g5419" /><g
       id="g5421" /><g
       id="g5423" /><g
       id="g5425" /><g
       id="g5427" /><g
       id="g5429" /><g
       id="g5431" /><g
       id="g5433" /><g
       id="g5435" /><g
       id="g5437" /><g
       id="g5439" /></g><g
     id="g5628"
     transform="matrix(0.1875,0,0,0.1875,485.59317,95.328837)"><path
       id="path5564"
       d="m 401.137,164.308 c -14.222,-23.612 -44.894,-31.223 -68.506,-17 -19.047,11.474 -27.673,33.65 -22.833,54.191 l -1.741,1.741 -13.828,-22.956 -33.465,-55.555 31.872,-55.778 c 1.967,-3.442 0.657,-7.83 -2.875,-9.631 l 0,0 c -16.29,-8.303 -36.228,-2.341 -45.287,13.541 l -25.288,39.458 c -4.792,7.477 -5.036,16.997 -0.633,24.71 l 22.394,39.226 c 1.604,2.809 0.956,6.365 -1.536,8.428 l -99.27,82.192 0,36.584 187.765,0 0.49,-17.327 c 11.941,-7.193 15.826,-22.848 8.634,-34.79 l -12.688,-21.065 1.973,-1.973 c 15.881,13.317 39.072,15.802 57.82,4.51 23.614,-14.222 31.225,-44.894 17.002,-68.506 z"
       style="fill:#ffbcab" /><path
       id="path5566"
       d="m 401.137,164.308 c -14.222,-23.612 -44.894,-31.223 -68.506,-17 -8.163,4.916 -14.41,11.8 -18.507,19.677 12.375,7.992 44.709,26.093 93.082,33.391 2.522,-11.928 0.718,-24.8 -6.069,-36.068 z"
       style="fill:#315591" /><path
       id="path5568"
       d="m 335.66,248.713 -173.366,0 -21.938,18.164 0,36.584 187.765,0 0.49,-17.327 c 11.941,-7.193 15.826,-22.848 8.634,-34.79 l -1.585,-2.631 z"
       style="fill:#ff9478" /><path
       id="path5570"
       d="m 504.147,277.92 c -15.239,-14.859 -39.593,-14.705 -54.643,0.346 l -0.382,0.382 c -15.186,15.186 -39.807,15.186 -54.994,0 l -0.059,-0.059 c -15.177,-15.178 -39.781,-15.188 -54.971,-0.023 l -0.036,0.036 c -15.19,15.164 -39.793,15.154 -54.971,-0.023 l -0.059,-0.059 c -15.186,-15.186 -39.807,-15.186 -54.994,0 l -0.382,0.382 c -15.051,15.051 -39.404,15.205 -54.643,0.346 l -1.362,-1.327 c -15.239,-14.859 -39.593,-14.705 -54.643,0.346 l -0.382,0.382 c -15.186,15.186 -39.807,15.186 -54.994,0 l -0.036,-0.036 c -15.186,-15.186 -39.807,-15.186 -54.994,0 0,0 0,150.19 0,147.614 0,-2.575 496.544,0 496.544,0 l 0,-147.64"
       style="fill:#52a2e7" /><path
       id="path5572"
       d="m 201.155,362.149 c -11.731,10e-4 -23.464,-4.371 -32.451,-13.133 l -1.36,-1.326 c -12.197,-11.893 -31.916,-11.768 -43.959,0.277 l -0.382,0.382 c -2.971,2.969 -7.784,2.969 -10.754,0 -2.97,-2.971 -2.97,-7.784 0,-10.754 l 0.382,-0.382 c 17.899,-17.899 47.205,-18.084 65.33,-0.413 l 1.36,1.326 c 12.196,11.892 31.915,11.767 43.959,-0.277 l 0.381,-0.381 c 8.781,-8.78 20.457,-13.616 32.874,-13.616 12.418,0 24.093,4.836 32.874,13.616 12.244,12.246 32.084,12.255 44.28,0.077 18.164,-18.133 47.645,-18.118 65.756,-0.009 0.015,0.016 0.088,0.09 0.103,0.105 2.944,2.995 2.904,7.809 -0.09,10.753 -2.995,2.943 -7.808,2.905 -10.753,-0.09 l -0.059,-0.06 c -12.143,-12.143 -31.979,-12.149 -44.177,0.026 -18.162,18.133 -47.643,18.12 -65.756,0.009 -12.253,-12.255 -32.101,-12.258 -44.298,-0.059 l -0.381,0.381 c -9.023,9.027 -20.951,13.547 -32.879,13.548 z"
       style="fill:#4675cf" /><rect
       id="rect5574"
       height="41.317001"
       width="496.79199"
       style="fill:#e5e5e5"
       y="415.116"
       x="7.6040001" /><g
       id="g5576"><rect
         id="rect5578"
         height="41.730999"
         width="71.68"
         style="fill:#acaab1"
         y="415.116"
         x="190.129" /><rect
         id="rect5580"
         height="41.730999"
         width="58.764999"
         style="fill:#acaab1"
         y="415.116"
         x="63.708" /><rect
         id="rect5582"
         height="41.730999"
         width="71.508003"
         style="fill:#acaab1"
         y="415.42001"
         x="322.884" /><rect
         id="rect5584"
         height="41.730999"
         width="45.202"
         style="fill:#acaab1"
         y="415.42001"
         x="459.198" /></g><rect
       id="rect5586"
       height="24.209"
       width="496.539"
       style="fill:#4675cf"
       y="390.905"
       x="7.329" /><path
       id="path5588"
       d="m 123.004,348.351 0.382,-0.382 c 12.043,-12.046 31.762,-12.17 43.959,-0.277 l 1.36,1.326 c 8.987,8.763 20.719,13.134 32.451,13.133 11.928,-0.001 23.855,-4.522 32.88,-13.545 l 0.381,-0.381 c 12.197,-12.199 32.045,-12.196 44.298,0.059 18.113,18.111 47.594,18.124 65.756,-0.009 12.198,-12.176 32.035,-12.169 44.177,-0.026 l 0.059,0.06 c 2.945,2.995 7.758,3.033 10.753,0.09 2.994,-2.944 3.034,-7.758 0.09,-10.753 -0.015,-0.015 -0.088,-0.089 -0.103,-0.105 -18.111,-18.109 -47.592,-18.124 -65.756,0.009 -12.197,12.177 -32.036,12.169 -44.28,-0.077 -8.781,-8.78 -20.457,-13.616 -32.874,-13.616 -12.418,0 -24.093,4.836 -32.874,13.616 l -0.381,0.381 c -12.044,12.045 -31.763,12.169 -43.959,0.277 l -1.36,-1.326 c -18.125,-17.672 -47.43,-17.486 -65.33,0.413 l -0.382,0.382 c -2.97,2.971 -2.97,7.784 0,10.754 2.969,2.965 7.783,2.965 10.753,-0.003 z" /><path
       id="path5590"
       d="m 511.751,414.22 0,-135.634 c 0,-0.112 -0.002,-0.223 -0.007,-0.334 0.09,-2.089 -0.674,-4.203 -2.288,-5.777 -18.124,-17.672 -47.428,-17.486 -65.329,0.413 l -0.382,0.382 c -12.195,12.199 -32.042,12.199 -44.195,0.046 -0.015,-0.015 -0.088,-0.089 -0.103,-0.105 -13.817,-13.815 -34.247,-17.087 -51.21,-9.831 -0.159,-5.587 -1.739,-11.058 -4.691,-15.959 l -1.305,-2.167 c 0.758,0.221 1.52,0.437 2.291,0.629 4.626,1.149 9.308,1.716 13.956,1.716 10.329,0 20.498,-2.804 29.573,-8.27 13.159,-7.926 22.445,-20.504 26.144,-35.415 0.28,-1.129 0.514,-2.262 0.725,-3.395 0.008,-0.051 0.019,-0.101 0.026,-0.153 2.532,-13.794 -0.006,-27.862 -7.306,-39.981 -7.926,-13.159 -20.503,-22.445 -35.414,-26.144 -14.912,-3.701 -30.37,-1.373 -43.529,6.554 -13.159,7.926 -22.445,20.504 -26.144,35.415 -0.192,0.772 -0.357,1.545 -0.516,2.319 L 269.581,124.63 302.852,66.4 c 1.032,-1.805 1.279,-3.954 0.684,-5.947 -0.595,-1.993 -1.98,-3.654 -3.832,-4.599 l -6.49,-3.309 C 273.332,42.412 249.11,49.606 237.972,68.916 l -25.186,39.301 c -6.341,9.893 -6.66,22.378 -0.834,32.583 l 22,38.535 -97.763,80.944 c -8.656,1.747 -16.897,5.95 -23.557,12.61 l -0.382,0.382 C 100.056,285.467 80.208,285.47 67.974,273.235 49.849,255.11 20.353,255.111 2.228,273.235 0.801,274.66 0,276.594 0,278.611 l 0,137.511 0,0 0,0 0,40.313 c 0,4.2 3.404,7.604 7.604,7.604 l 496.792,0 c 4.2,0 7.604,-3.404 7.604,-7.604 l 0,-40.313 c 0,-0.658 -0.092,-1.292 -0.249,-1.902 z M 380.213,226.3 c -19.982,12.038 -46.032,5.572 -58.068,-14.411 -6.967,-11.566 -7.725,-25.161 -3.261,-36.899 l 79.407,29.052 c -3.14,8.988 -9.305,16.974 -18.078,22.258 z m -43.658,-72.479 c 6.676,-4.022 14.155,-6.084 21.752,-6.084 3.419,0 6.863,0.418 10.266,1.263 10.967,2.722 20.218,9.552 26.048,19.232 3.869,6.423 5.817,13.471 6.028,20.481 l -73.701,-26.965 c 2.729,-3.031 5.938,-5.717 9.607,-7.927 z m -221.296,269.906 0,25.105 -52.058,0 0,-25.105 52.058,0 z m 15.208,0 52.059,0 0,25.105 -52.059,0 0,-25.105 z m 67.265,0 52.059,0 0,25.105 -52.059,0 0,-25.105 z m 67.267,0 52.059,0 0,25.105 -52.059,0 0,-25.105 0,0 z m 67.267,0 52.059,0 0,25.105 -52.059,0 0,-25.105 0,0 z m 67.265,0 52.058,0 0,25.105 -52.058,0 0,-25.105 z M 250.327,177.346 225.159,133.26 c -3.011,-5.273 -2.846,-11.724 0.431,-16.836 l 25.287,-39.458 c 0.07,-0.109 0.139,-0.222 0.203,-0.336 6.945,-12.175 22.031,-16.853 34.608,-10.84 l -31.525,55.168 c -1.368,2.392 -1.332,5.336 0.088,7.696 l 76.267,126.615 c 5.017,8.327 2.365,19.159 -5.889,24.249 -11.546,5.281 -25.663,3.186 -35.116,-6.269 -0.015,-0.015 -0.088,-0.089 -0.103,-0.105 -8.781,-8.78 -20.457,-13.617 -32.874,-13.617 -12.418,0 -24.093,4.837 -32.882,13.624 l -0.374,0.375 c -12.044,12.045 -31.762,12.169 -43.957,0.279 l -1.363,-1.329 c -5.545,-5.406 -12.138,-9.132 -19.13,-11.199 l 89.742,-74.303 c 2.846,-2.358 3.588,-6.419 1.755,-9.628 z M 15.208,281.963 c 12.276,-10.129 30.533,-9.452 42.049,2.061 8.781,8.78 20.457,13.616 32.874,13.616 12.417,0 24.092,-4.836 32.873,-13.616 l 0.382,-0.382 c 12.043,-12.043 31.762,-12.168 43.957,-0.279 l 1.363,1.329 c 18.123,17.67 47.429,17.486 65.335,-0.42 l 0.374,-0.375 c 5.908,-5.909 13.763,-9.163 22.119,-9.163 8.356,0 16.212,3.254 22.075,9.118 0.015,0.015 0.088,0.089 0.103,0.105 18.112,18.11 47.593,18.124 65.721,0.026 0.015,-0.015 0.042,-0.042 0.066,-0.066 12.199,-12.146 32.015,-12.129 44.147,0.003 0.015,0.015 0.088,0.089 0.103,0.105 18.127,18.127 47.622,18.127 65.749,0 l 0.382,-0.383 c 11.314,-11.315 29.4,-12.112 41.662,-2.306 l 0,127.107 c -22.407,-0.112 -91.288,-0.443 -170.104,-0.714 -0.571,-0.137 -1.164,-0.217 -1.777,-0.217 -0.596,0 -1.174,0.076 -1.732,0.206 -21.35,-0.073 -43.381,-0.14 -65.381,-0.198 -0.052,-10e-4 -0.102,-0.008 -0.154,-0.008 -0.047,0 -0.092,0.006 -0.139,0.007 -0.133,0 -0.266,0 -0.398,-0.001 -46.338,-0.121 -86.65,-0.181 -120.515,-0.181 -18.681,0 -35.403,0.019 -50.087,0.056 -11.427,0.028 -21.65,0.069 -30.65,0.121 -0.003,0 -0.006,0 -0.009,0 -0.004,0 -0.008,0 -0.012,0 -10.319,0.059 -19.023,0.133 -25.998,0.22 -5.967,0.075 -10.791,0.162 -14.38,0.26 l 0.002,-126.031 0,0 z m 0,141.764 32.785,0 0,25.105 -32.785,0 0,-25.105 z m 481.584,25.105 -29.995,0 0,-25.105 29.995,0 0,25.105 z" /><g
       id="g5592" /><g
       id="g5594" /><g
       id="g5596" /><g
       id="g5598" /><g
       id="g5600" /><g
       id="g5602" /><g
       id="g5604" /><g
       id="g5606" /><g
       id="g5608" /><g
       id="g5610" /><g
       id="g5612" /><g
       id="g5614" /><g
       id="g5616" /><g
       id="g5618" /><g
       id="g5620" /></g><g
     id="g5538"
     transform="matrix(0.79319893,0,0,0.79319893,202.05975,-26.239658)"><path
       id="path5490"
       d="m 504.733,286.222 -165.245,0 -48.171,131.226 c -2.146,5.848 -7.704,9.636 -13.792,9.636 -0.915,0 -1.839,-0.086 -2.769,-0.262 -6.611,-1.255 -11.425,-7.024 -11.93,-13.735 l -15.516,-206.141 -21.67,68.98 c -1.924,6.127 -7.603,10.295 -14.025,10.295 l -203.674,0 0,-29.402 192.885,0 41.376,-131.707 c 2.29,-7.29 9.841,-11.705 17.474,-9.887 6.292,1.498 10.754,7.119 11.239,13.57 l 16.172,214.855 28.337,-77.197 c 2.125,-5.788 7.635,-9.635 13.801,-9.635 l 175.508,0 0,29.404 0,0 z"
       style="fill:#d7d5d9" /><g
       id="g5492"><rect
         id="rect5494"
         height="29.402"
         width="22.683001"
         style="opacity:0.26000001;fill:#3e3b43;enable-background:new"
         y="256.82199"
         x="7.941" /><rect
         id="rect5496"
         height="29.402"
         width="22.683001"
         style="opacity:0.26000001;fill:#3e3b43;enable-background:new"
         y="256.82199"
         x="481.716" /></g><path
       id="path5500"
       d="m 504.396,253.071 -175.507,0 c -9.314,0 -17.728,5.874 -20.938,14.619 L 291.702,311.957 278.133,131.7 c -0.802,-10.648 -9.082,-19.263 -19.69,-20.484 -10.607,-1.218 -20.631,5.286 -23.831,15.474 l -39.703,126.382 -187.305,0 C 3.405,253.072 0,256.477 0,260.676 l 0,29.402 c 0,4.199 3.405,7.604 7.604,7.604 l 203.677,0 c 9.793,0 18.345,-6.277 21.28,-15.62 l 9.805,-31.211 12.574,167.061 c 0.783,10.393 8.843,18.981 19.166,20.417 1.021,0.142 2.059,0.214 3.084,0.214 9.309,0 17.72,-5.875 20.93,-14.62 l 46.342,-126.243 159.935,0 c 4.199,0 7.604,-3.405 7.604,-7.604 l 0,-29.402 c -10e-4,-4.198 -3.406,-7.603 -7.605,-7.603 z m -7.604,29.402 -157.639,0 c -3.19,0 -6.04,1.99 -7.139,4.984 l -48.171,131.227 c -1.134,3.09 -4.335,5.042 -7.641,4.584 -3.285,-0.457 -5.85,-3.19 -6.098,-6.497 L 254.558,210.232 c -0.274,-3.636 -3.09,-6.567 -6.713,-6.983 -0.294,-0.033 -0.585,-0.051 -0.875,-0.051 -3.285,0 -6.245,2.128 -7.249,5.325 l -21.67,68.98 c -0.934,2.973 -3.655,4.97 -6.771,4.97 l -196.072,0 0,-14.194 185.282,0 c 3.321,0 6.259,-2.155 7.254,-5.325 L 249.12,131.247 c 1.018,-3.241 4.205,-5.313 7.583,-4.923 3.375,0.388 6.01,3.13 6.265,6.518 l 16.2,215.236 c 0.269,3.569 2.99,6.466 6.534,6.96 3.543,0.497 6.953,-1.551 8.187,-4.911 l 28.337,-77.197 c 1.021,-2.782 3.699,-4.652 6.662,-4.652 l 167.904,0 0,14.195 z" /><g
       id="g5502" /><g
       id="g5504" /><g
       id="g5506" /><g
       id="g5508" /><g
       id="g5510" /><g
       id="g5512" /><g
       id="g5514" /><g
       id="g5516" /><g
       id="g5518" /><g
       id="g5520" /><g
       id="g5522" /><g
       id="g5524" /><g
       id="g5526" /><g
       id="g5528" /><g
       id="g5530" /><g
       id="g9041"
       transform="matrix(0.5357703,0,0,0.5357703,-178.76312,392.06532)"><path
         style="fill:#ff3f62"
         d="m 457.76996,-232.32923 c -0.072,-25.61901 -20.89899,-46.33001 -46.51799,-46.25901 -10.408,0.029 -19.988,10.082 -27.712,15.891 -7.756,-5.767 -17.392,-15.766 -27.8,-15.737 -25.619,0.072 -46.33,20.899 -46.258,46.51801 0.069,24.59 74.363,77.94099 74.363,77.94099 0,0 73.99399,-53.76399 73.92499,-78.35399 z"
         id="path5486" /><path
         style="fill:#ff0c38"
         d="m 384.94997,-153.97524 c 0,0 73.99499,-53.76399 73.92599,-78.35399 -0.072,-25.61901 -20.89899,-46.33001 -46.51799,-46.25901 -10.408,0.029 -19.988,10.082 -27.712,15.891 l 0.304,108.722 z"
         id="path5488" /><path
         d="m 341.65597,-178.02323 c 18.655,16.475 36.983,29.673 37.754,30.226 1.325,0.95199 2.88,1.42799 4.436,1.42799 1.568,0 3.138,-0.485 4.47,-1.45299 0.767,-0.55801 19.022,-13.856 37.584,-30.437 35.42999,-31.646 39.498,-46.026 39.476,-54.092 -0.083,-29.72001 -24.288,-53.84101 -53.99,-53.84101 -0.051,0 -0.101,0 -0.152,0 -11.02,0.031 -20.223,7.609 -27.619,13.698 -0.033,0.027 -0.066,0.054 -0.098,0.081 -0.033,-0.027 -0.067,-0.055 -0.1,-0.082 -7.414,-6.036 -16.636,-13.543 -27.628,-13.543 -0.021,0 -0.045,0 -0.066,0 -29.771,0.084 -53.924,24.372 -53.841,54.143 0.019,8.066 4.167,22.424 39.774,53.872 z m 14.106,-92.80601 c 0.008,0 0.016,0 0.024,0 5.582,0 12.194,5.382 18.026,10.129 1.795,1.46 3.489,2.84 5.191,4.105 2.705,2.012 6.414,2.002 9.109,-0.025 1.695,-1.275 3.381,-2.663 5.167,-4.134 5.815,-4.788 12.407,-10.216 17.995,-10.231 0.037,0 0.072,0 0.109,0 21.334,0 38.72301,17.328 38.783,38.67601 0.008,2.8 -2.443,14.148 -34.316,42.633 -12.671,11.324 -25.492,21.285 -32.032,26.235 -6.569,-4.913 -19.445,-14.802 -32.178,-26.055 -32.031,-28.305 -34.546,-39.64 -34.554,-42.44 -0.059,-21.38601 17.291,-38.83301 38.676,-38.89301 z"
         id="path5498" /></g></g><g
     id="g6227"
     transform="matrix(0.375,0,0,0.375,35.257049,104.60169)"><g
       id="g6089"
       transform="translate(-4,0)"><g
         id="g6141"><rect
           id="rect6143"
           height="203.265"
           width="254.089"
           style="fill:#f5ece1"
           transform="matrix(0.9672,0.2539,-0.2539,0.9672,61.2503,-60.2002)"
           y="105.578"
           x="136.82201" /><rect
           id="rect6145"
           height="50.818001"
           width="50.818001"
           style="fill:#505b66"
           transform="matrix(0.9672,0.2539,-0.2539,0.9672,33.3925,-43.4135)"
           y="82.273003"
           x="159.505" /><rect
           id="rect6147"
           height="50.819"
           width="50.819"
           style="fill:#505b66"
           transform="matrix(0.9672,0.2539,-0.2539,0.9672,43.1658,-67.5267)"
           y="108.076"
           x="257.811" /><rect
           id="rect6149"
           height="50.819"
           width="50.82"
           style="fill:#505b66"
           transform="matrix(0.9672,0.2539,-0.2539,0.9672,52.9421,-91.6447)"
           y="133.88"
           x="356.117" /><rect
           id="rect6151"
           height="50.819"
           width="50.818001"
           style="fill:#505b66"
           transform="matrix(0.9672,0.2539,-0.2539,0.9672,50.3471,-50.5942)"
           y="144.327"
           x="195.756" /><rect
           id="rect6153"
           height="50.819"
           width="50.818001"
           style="fill:#505b66"
           transform="matrix(0.9672,0.2538,-0.2538,0.9672,60.1004,-74.6906)"
           y="170.13"
           x="294.06201" /><rect
           id="rect6155"
           height="50.819"
           width="50.818001"
           style="fill:#505b66"
           transform="matrix(0.9672,0.2538,-0.2538,0.9672,57.4974,-33.6411)"
           y="180.577"
           x="133.702" /><rect
           id="rect6157"
           height="50.813"
           width="50.817001"
           style="fill:#505b66"
           transform="matrix(0.9673,0.2538,-0.2538,0.9673,67.2605,-57.7452)"
           y="206.382"
           x="232.007" /><rect
           id="rect6159"
           height="50.812"
           width="50.817001"
           style="fill:#505b66"
           transform="matrix(0.9672,0.2539,-0.2539,0.9672,77.0503,-81.8695)"
           y="232.18401"
           x="330.31299" /><rect
           id="rect6161"
           height="50.813"
           width="50.818001"
           style="fill:#505b66"
           transform="matrix(0.9672,0.2539,-0.2539,0.9672,74.4413,-40.8129)"
           y="242.631"
           x="169.953" /><rect
           id="rect6163"
           height="50.817001"
           width="50.817001"
           style="fill:#505b66"
           transform="matrix(0.9672,0.2539,-0.2539,0.9672,84.2369,-64.9375)"
           y="268.431"
           x="268.259" /></g><path
         id="path6165"
         d="M 181.184,46.976 141.617,36.59 c -6.489,-1.705 -13.128,2.176 -14.83,8.665 -1.704,6.485 2.176,13.126 8.663,14.83 l 6.182,1.623 -80.357,306.134 c 7.39,7.344 15.331,14.131 23.752,20.303 l 83.809,-319.299 6.184,1.624 c 6.487,1.701 13.128,-2.177 14.83,-8.664 1.703,-6.488 -2.176,-13.128 -8.666,-14.83 z"
         style="fill:#ea7053" /><g
         id="g6167"><rect
           id="rect6169"
           height="203.265"
           width="254.089"
           style="fill:#f5ece1"
           transform="matrix(0.9672,0.2539,-0.2539,0.9672,61.2503,-60.2002)"
           y="105.578"
           x="136.82201" /><rect
           id="rect6171"
           height="50.818001"
           width="50.818001"
           style="fill:#505b66"
           transform="matrix(0.9672,0.2539,-0.2539,0.9672,33.3925,-43.4135)"
           y="82.273003"
           x="159.505" /><rect
           id="rect6173"
           height="50.819"
           width="50.819"
           style="fill:#505b66"
           transform="matrix(0.9672,0.2539,-0.2539,0.9672,43.1658,-67.5267)"
           y="108.076"
           x="257.811" /><rect
           id="rect6175"
           height="50.819"
           width="50.82"
           style="fill:#505b66"
           transform="matrix(0.9672,0.2539,-0.2539,0.9672,52.9421,-91.6447)"
           y="133.88"
           x="356.117" /><rect
           id="rect6177"
           height="50.819"
           width="50.818001"
           style="fill:#505b66"
           transform="matrix(0.9672,0.2539,-0.2539,0.9672,50.3471,-50.5942)"
           y="144.327"
           x="195.756" /><rect
           id="rect6179"
           height="50.819"
           width="50.818001"
           style="fill:#505b66"
           transform="matrix(0.9672,0.2538,-0.2538,0.9672,60.1004,-74.6906)"
           y="170.13"
           x="294.06201" /><rect
           id="rect6181"
           height="50.819"
           width="50.818001"
           style="fill:#505b66"
           transform="matrix(0.9672,0.2538,-0.2538,0.9672,57.4974,-33.6411)"
           y="180.577"
           x="133.702" /><rect
           id="rect6183"
           height="50.813"
           width="50.817001"
           style="fill:#505b66"
           transform="matrix(0.9673,0.2538,-0.2538,0.9673,67.2605,-57.7452)"
           y="206.382"
           x="232.007" /><rect
           id="rect6185"
           height="50.812"
           width="50.817001"
           style="fill:#505b66"
           transform="matrix(0.9672,0.2539,-0.2539,0.9672,77.0503,-81.8695)"
           y="232.18401"
           x="330.31299" /><rect
           id="rect6187"
           height="50.813"
           width="50.818001"
           style="fill:#505b66"
           transform="matrix(0.9672,0.2539,-0.2539,0.9672,74.4413,-40.8129)"
           y="242.631"
           x="169.953" /><polygon
           id="polygon6189"
           points="262.965,312.195 275.543,262.812 324.695,275.713 311.97,325.115 "
           style="fill:#505b66" /></g></g><g
       id="g6191" /><g
       id="g6193" /><g
       id="g6195" /><g
       id="g6197" /><g
       id="g6199" /><g
       id="g6201" /><g
       id="g6203" /><g
       id="g6205" /><g
       id="g6207" /><g
       id="g6209" /><g
       id="g6211" /><g
       id="g6213" /><g
       id="g6215" /><g
       id="g6217" /><g
       id="g6219" /></g></svg>