
                    <svg version="1.1" id="Layer_1" xmlns="http://www.w3.org/2000/svg" xmlns:xlink="http://www.w3.org/1999/xlink" x="0px" y="0px"
                    viewBox="0 0 512 512" style="enable-background:new 0 0 512 512;" xml:space="preserve">
               <path style="fill:#FFDB2D;" d="M473.877,427.03H38.123C17.102,427.03,0,409.928,0,388.906V123.094
                   C0,102.072,17.102,84.97,38.123,84.97h435.753c21.021,0,38.123,17.102,38.123,38.123v265.813
                   C512,409.928,494.898,427.03,473.877,427.03z"/>
               <path style="fill:#B9F7F9;" d="M60.494,309.764c-45.566-70.203,8.045-144.595,76.021-138.369c4.746,0.435,8.371,4.44,8.371,9.206
                   v59.058h59.058c4.766,0,8.772,3.624,9.206,8.371c6.227,67.976-68.166,121.586-138.369,76.021
                   C69.073,320.346,64.198,315.471,60.494,309.764z"/>
               <path style="fill:#FF4F19;" d="M197.174,272.34h-68.63c-9.024,0-16.34-7.316-16.34-16.34v-68.63c0-8.986,7.262-16.331,16.248-16.34
                   c46.926-0.05,85.113,38.136,85.063,85.063C213.505,265.079,206.161,272.34,197.174,272.34z"/>
               <path style="fill:#FF9900;" d="M473.877,87.149H256V427.03h217.877c21.021,0,38.123-16.993,38.123-37.88v-264.12
                   C512,104.142,494.898,87.149,473.877,87.149z"/>
                   <path style="fill:#FF4F19;" d="M437.923,211.336H330.077c-9.024,0-16.34-7.316-16.34-16.34c0-9.024,7.316-16.34,16.34-16.34
                       h107.847c9.024,0,16.34,7.316,16.34,16.34C454.264,204.02,446.948,211.336,437.923,211.336z"/>
                   <path style="fill:#FF4F19;" d="M437.923,272.34H330.077c-9.024,0-16.34-7.316-16.34-16.34c0-9.024,7.316-16.34,16.34-16.34h107.847
                       c9.024,0,16.34,7.316,16.34,16.34C454.264,265.024,446.948,272.34,437.923,272.34z"/>
                   <path style="fill:#FF4F19;" d="M437.923,333.345H330.077c-9.024,0-16.34-7.316-16.34-16.34s7.316-16.34,16.34-16.34h107.847
                       c9.024,0,16.34,7.316,16.34,16.34S446.948,333.345,437.923,333.345z"/>
               
               </svg>
