<?xml version="1.0" encoding="iso-8859-1"?>
<!-- Generator: Adobe Illustrator 16.0.0, SVG Export Plug-In . SVG Version: 6.00 Build 0)  -->
<!DOCTYPE svg PUBLIC "-//W3C//DTD SVG 1.1//EN" "http://www.w3.org/Graphics/SVG/1.1/DTD/svg11.dtd">
<svg version="1.1" id="Capa_1" xmlns="http://www.w3.org/2000/svg" xmlns:xlink="http://www.w3.org/1999/xlink" x="0px" y="0px"
	 width="122.119px" height="122.119px" viewBox="0 0 122.119 122.119" style="enable-background:new 0 0 122.119 122.119;"
	 xml:space="preserve">
<g>
	<g>
		<circle cx="68.311" cy="21.83" r="10.672"/>
		<path d="M118.51,37.342c-2.763-0.918-5.748,0.574-6.668,3.336L91.95,100.414H53.327c0.825-0.447,1.536-1.128,2.005-2.021
			c9.454-18.043,8.594-20.34,7.9-22.187c-0.303-0.808-0.963-2.563-9.099-10.954c0.333-0.363,0.643-0.758,0.909-1.209l11.44-19.325
			c3.863,0.644,8.604,1.295,11.949,1.295c1.053,0,1.969-0.063,2.674-0.214c4.449-0.939,10.418-6.944,12.779-9.482
			c1.557-1.675,1.461-4.295-0.214-5.853c-1.675-1.56-4.296-1.465-5.854,0.209c-3.098,3.327-7.12,6.675-8.422,7.019
			c-1.416,0.276-6.807-0.361-12.146-1.255c-0.585-1.331-1.439-2.538-2.412-3.489l-0.025-0.021c0,0-0.961-0.876-1.931-1.481
			c-1.017-0.632-2.154-0.915-2.154-0.915c-0.748-0.227-1.556-0.374-2.383-0.438c-4.63-0.887-15.098-2.711-19.049-1.874
			c-4.449,0.941-10.417,6.944-12.775,9.481c-1.559,1.676-1.463,4.298,0.213,5.855c0.798,0.742,1.811,1.109,2.82,1.109
			c1.111,0,2.219-0.444,3.035-1.322c3.091-3.325,7.113-6.671,8.419-7.017c0.988-0.192,3.896,0.059,7.37,0.529L38.19,54.065
			c-0.37,0.625-0.623,1.263-0.79,1.902c-0.068,0.099-0.137,0.196-0.199,0.3c-0.299,0.507-7.275,12.33-9.596,17.529
			c-1.37,1.627-8.726,4.475-15.591,6.021c-2.639,0.592-4.298,3.211-3.704,5.85c0.511,2.277,2.531,3.824,4.772,3.824
			c0.355,0,0.716-0.038,1.077-0.12c7.167-1.608,19.6-5.239,22.342-11.479c1.05-2.388,3.603-7.021,5.847-10.965
			c0.228,0.442,0.524,0.859,0.896,1.231c3.896,3.892,8.427,8.674,10.273,10.926c-0.987,2.899-4.083,9.461-6.86,14.763
			c-1.243,2.371-0.347,5.293,1.993,6.567H5.272c-2.912,0-5.272,2.36-5.272,5.272s2.36,5.272,5.272,5.272h90.462
			c0.007,0,0.014,0.002,0.02,0.002c0.008,0,0.014-0.002,0.02-0.002h4.5c2.912,0,5.272-2.36,5.272-5.272
			c0-1.979-1.091-3.699-2.702-4.603l19.004-57.074C122.768,41.248,121.273,38.262,118.51,37.342z"/>
		<path d="M99.719,57.664c0.277,0.1,0.562,0.146,0.84,0.146c1.026,0,1.989-0.638,2.354-1.66l9.75-27.306
			c0.464-1.301-0.214-2.73-1.515-3.195c-1.303-0.467-2.73,0.213-3.194,1.514l-9.75,27.306C97.741,55.77,98.418,57.2,99.719,57.664z"
			/>
	</g>
</g>
<g>
</g>
<g>
</g>
<g>
</g>
<g>
</g>
<g>
</g>
<g>
</g>
<g>
</g>
<g>
</g>
<g>
</g>
<g>
</g>
<g>
</g>
<g>
</g>
<g>
</g>
<g>
</g>
<g>
</g>
</svg>
